<?xml version="1.0" encoding="utf-8" standalone="no"?>
<!DOCTYPE svg PUBLIC "-//W3C//DTD SVG 1.1//EN"
  "http://www.w3.org/Graphics/SVG/1.1/DTD/svg11.dtd">
<svg xmlns:xlink="http://www.w3.org/1999/xlink" width="715.68pt" height="475.92pt" viewBox="0 0 715.68 475.92" xmlns="http://www.w3.org/2000/svg" version="1.1">
 <metadata>
  <rdf:RDF xmlns:dc="http://purl.org/dc/elements/1.1/" xmlns:cc="http://creativecommons.org/ns#" xmlns:rdf="http://www.w3.org/1999/02/22-rdf-syntax-ns#">
   <cc:Work>
    <dc:type rdf:resource="http://purl.org/dc/dcmitype/StillImage"/>
    <dc:date>2023-04-26T09:10:21.178758</dc:date>
    <dc:format>image/svg+xml</dc:format>
    <dc:creator>
     <cc:Agent>
      <dc:title>Matplotlib v3.5.2, https://matplotlib.org/</dc:title>
     </cc:Agent>
    </dc:creator>
   </cc:Work>
  </rdf:RDF>
 </metadata>
 <defs>
  <style type="text/css">*{stroke-linejoin: round; stroke-linecap: butt}</style>
 </defs>
 <g id="figure_1">
  <g id="patch_1">
   <path d="M 0 475.92 
L 715.68 475.92 
L 715.68 0 
L 0 0 
z
" style="fill: #ffffff"/>
  </g>
  <g id="axes_1">
   <g id="patch_2">
    <path d="M 89.46 423.5688 
L 644.112 423.5688 
L 644.112 57.1104 
L 89.46 57.1104 
z
" style="fill: #ffffff"/>
   </g>
   <g id="matplotlib.axis_1">
    <g id="xtick_1">
     <g id="line2d_1">
      <path d="M 104.166682 423.5688 
L 104.166682 57.1104 
" clip-path="url(#p87e4eaa9a8)" style="fill: none; stroke: #b0b0b0; stroke-width: 0.8; stroke-linecap: square"/>
     </g>
     <g id="line2d_2">
      <defs>
       <path id="mef952bd15e" d="M 0 0 
L 0 3.5 
" style="stroke: #000000; stroke-width: 0.8"/>
      </defs>
      <g>
       <use xlink:href="#mef952bd15e" x="104.166682" y="423.5688" style="stroke: #000000; stroke-width: 0.8"/>
      </g>
     </g>
     <g id="text_1">
      <!-- 0 -->
      <g transform="translate(100.985432 438.167237)scale(0.1 -0.1)">
       <defs>
        <path id="DejaVuSans-30" d="M 2034 4250 
Q 1547 4250 1301 3770 
Q 1056 3291 1056 2328 
Q 1056 1369 1301 889 
Q 1547 409 2034 409 
Q 2525 409 2770 889 
Q 3016 1369 3016 2328 
Q 3016 3291 2770 3770 
Q 2525 4250 2034 4250 
z
M 2034 4750 
Q 2819 4750 3233 4129 
Q 3647 3509 3647 2328 
Q 3647 1150 3233 529 
Q 2819 -91 2034 -91 
Q 1250 -91 836 529 
Q 422 1150 422 2328 
Q 422 3509 836 4129 
Q 1250 4750 2034 4750 
z
" transform="scale(0.015625)"/>
       </defs>
       <use xlink:href="#DejaVuSans-30"/>
      </g>
     </g>
    </g>
    <g id="xtick_2">
     <g id="line2d_3">
      <path d="M 209.214409 423.5688 
L 209.214409 57.1104 
" clip-path="url(#p87e4eaa9a8)" style="fill: none; stroke: #b0b0b0; stroke-width: 0.8; stroke-linecap: square"/>
     </g>
     <g id="line2d_4">
      <g>
       <use xlink:href="#mef952bd15e" x="209.214409" y="423.5688" style="stroke: #000000; stroke-width: 0.8"/>
      </g>
     </g>
     <g id="text_2">
      <!-- 100 -->
      <g transform="translate(199.670659 438.167237)scale(0.1 -0.1)">
       <defs>
        <path id="DejaVuSans-31" d="M 794 531 
L 1825 531 
L 1825 4091 
L 703 3866 
L 703 4441 
L 1819 4666 
L 2450 4666 
L 2450 531 
L 3481 531 
L 3481 0 
L 794 0 
L 794 531 
z
" transform="scale(0.015625)"/>
       </defs>
       <use xlink:href="#DejaVuSans-31"/>
       <use xlink:href="#DejaVuSans-30" x="63.623047"/>
       <use xlink:href="#DejaVuSans-30" x="127.246094"/>
      </g>
     </g>
    </g>
    <g id="xtick_3">
     <g id="line2d_5">
      <path d="M 314.262136 423.5688 
L 314.262136 57.1104 
" clip-path="url(#p87e4eaa9a8)" style="fill: none; stroke: #b0b0b0; stroke-width: 0.8; stroke-linecap: square"/>
     </g>
     <g id="line2d_6">
      <g>
       <use xlink:href="#mef952bd15e" x="314.262136" y="423.5688" style="stroke: #000000; stroke-width: 0.8"/>
      </g>
     </g>
     <g id="text_3">
      <!-- 200 -->
      <g transform="translate(304.718386 438.167237)scale(0.1 -0.1)">
       <defs>
        <path id="DejaVuSans-32" d="M 1228 531 
L 3431 531 
L 3431 0 
L 469 0 
L 469 531 
Q 828 903 1448 1529 
Q 2069 2156 2228 2338 
Q 2531 2678 2651 2914 
Q 2772 3150 2772 3378 
Q 2772 3750 2511 3984 
Q 2250 4219 1831 4219 
Q 1534 4219 1204 4116 
Q 875 4013 500 3803 
L 500 4441 
Q 881 4594 1212 4672 
Q 1544 4750 1819 4750 
Q 2544 4750 2975 4387 
Q 3406 4025 3406 3419 
Q 3406 3131 3298 2873 
Q 3191 2616 2906 2266 
Q 2828 2175 2409 1742 
Q 1991 1309 1228 531 
z
" transform="scale(0.015625)"/>
       </defs>
       <use xlink:href="#DejaVuSans-32"/>
       <use xlink:href="#DejaVuSans-30" x="63.623047"/>
       <use xlink:href="#DejaVuSans-30" x="127.246094"/>
      </g>
     </g>
    </g>
    <g id="xtick_4">
     <g id="line2d_7">
      <path d="M 419.309864 423.5688 
L 419.309864 57.1104 
" clip-path="url(#p87e4eaa9a8)" style="fill: none; stroke: #b0b0b0; stroke-width: 0.8; stroke-linecap: square"/>
     </g>
     <g id="line2d_8">
      <g>
       <use xlink:href="#mef952bd15e" x="419.309864" y="423.5688" style="stroke: #000000; stroke-width: 0.8"/>
      </g>
     </g>
     <g id="text_4">
      <!-- 300 -->
      <g transform="translate(409.766114 438.167237)scale(0.1 -0.1)">
       <defs>
        <path id="DejaVuSans-33" d="M 2597 2516 
Q 3050 2419 3304 2112 
Q 3559 1806 3559 1356 
Q 3559 666 3084 287 
Q 2609 -91 1734 -91 
Q 1441 -91 1130 -33 
Q 819 25 488 141 
L 488 750 
Q 750 597 1062 519 
Q 1375 441 1716 441 
Q 2309 441 2620 675 
Q 2931 909 2931 1356 
Q 2931 1769 2642 2001 
Q 2353 2234 1838 2234 
L 1294 2234 
L 1294 2753 
L 1863 2753 
Q 2328 2753 2575 2939 
Q 2822 3125 2822 3475 
Q 2822 3834 2567 4026 
Q 2313 4219 1838 4219 
Q 1578 4219 1281 4162 
Q 984 4106 628 3988 
L 628 4550 
Q 988 4650 1302 4700 
Q 1616 4750 1894 4750 
Q 2613 4750 3031 4423 
Q 3450 4097 3450 3541 
Q 3450 3153 3228 2886 
Q 3006 2619 2597 2516 
z
" transform="scale(0.015625)"/>
       </defs>
       <use xlink:href="#DejaVuSans-33"/>
       <use xlink:href="#DejaVuSans-30" x="63.623047"/>
       <use xlink:href="#DejaVuSans-30" x="127.246094"/>
      </g>
     </g>
    </g>
    <g id="xtick_5">
     <g id="line2d_9">
      <path d="M 524.357591 423.5688 
L 524.357591 57.1104 
" clip-path="url(#p87e4eaa9a8)" style="fill: none; stroke: #b0b0b0; stroke-width: 0.8; stroke-linecap: square"/>
     </g>
     <g id="line2d_10">
      <g>
       <use xlink:href="#mef952bd15e" x="524.357591" y="423.5688" style="stroke: #000000; stroke-width: 0.8"/>
      </g>
     </g>
     <g id="text_5">
      <!-- 400 -->
      <g transform="translate(514.813841 438.167237)scale(0.1 -0.1)">
       <defs>
        <path id="DejaVuSans-34" d="M 2419 4116 
L 825 1625 
L 2419 1625 
L 2419 4116 
z
M 2253 4666 
L 3047 4666 
L 3047 1625 
L 3713 1625 
L 3713 1100 
L 3047 1100 
L 3047 0 
L 2419 0 
L 2419 1100 
L 313 1100 
L 313 1709 
L 2253 4666 
z
" transform="scale(0.015625)"/>
       </defs>
       <use xlink:href="#DejaVuSans-34"/>
       <use xlink:href="#DejaVuSans-30" x="63.623047"/>
       <use xlink:href="#DejaVuSans-30" x="127.246094"/>
      </g>
     </g>
    </g>
    <g id="xtick_6">
     <g id="line2d_11">
      <path d="M 629.405318 423.5688 
L 629.405318 57.1104 
" clip-path="url(#p87e4eaa9a8)" style="fill: none; stroke: #b0b0b0; stroke-width: 0.8; stroke-linecap: square"/>
     </g>
     <g id="line2d_12">
      <g>
       <use xlink:href="#mef952bd15e" x="629.405318" y="423.5688" style="stroke: #000000; stroke-width: 0.8"/>
      </g>
     </g>
     <g id="text_6">
      <!-- 500 -->
      <g transform="translate(619.861568 438.167237)scale(0.1 -0.1)">
       <defs>
        <path id="DejaVuSans-35" d="M 691 4666 
L 3169 4666 
L 3169 4134 
L 1269 4134 
L 1269 2991 
Q 1406 3038 1543 3061 
Q 1681 3084 1819 3084 
Q 2600 3084 3056 2656 
Q 3513 2228 3513 1497 
Q 3513 744 3044 326 
Q 2575 -91 1722 -91 
Q 1428 -91 1123 -41 
Q 819 9 494 109 
L 494 744 
Q 775 591 1075 516 
Q 1375 441 1709 441 
Q 2250 441 2565 725 
Q 2881 1009 2881 1497 
Q 2881 1984 2565 2268 
Q 2250 2553 1709 2553 
Q 1456 2553 1204 2497 
Q 953 2441 691 2322 
L 691 4666 
z
" transform="scale(0.015625)"/>
       </defs>
       <use xlink:href="#DejaVuSans-35"/>
       <use xlink:href="#DejaVuSans-30" x="63.623047"/>
       <use xlink:href="#DejaVuSans-30" x="127.246094"/>
      </g>
     </g>
    </g>
    <g id="text_7">
     <!-- Length of Trajectory -->
     <g transform="translate(316.856312 451.845363)scale(0.1 -0.1)">
      <defs>
       <path id="DejaVuSans-4c" d="M 628 4666 
L 1259 4666 
L 1259 531 
L 3531 531 
L 3531 0 
L 628 0 
L 628 4666 
z
" transform="scale(0.015625)"/>
       <path id="DejaVuSans-65" d="M 3597 1894 
L 3597 1613 
L 953 1613 
Q 991 1019 1311 708 
Q 1631 397 2203 397 
Q 2534 397 2845 478 
Q 3156 559 3463 722 
L 3463 178 
Q 3153 47 2828 -22 
Q 2503 -91 2169 -91 
Q 1331 -91 842 396 
Q 353 884 353 1716 
Q 353 2575 817 3079 
Q 1281 3584 2069 3584 
Q 2775 3584 3186 3129 
Q 3597 2675 3597 1894 
z
M 3022 2063 
Q 3016 2534 2758 2815 
Q 2500 3097 2075 3097 
Q 1594 3097 1305 2825 
Q 1016 2553 972 2059 
L 3022 2063 
z
" transform="scale(0.015625)"/>
       <path id="DejaVuSans-6e" d="M 3513 2113 
L 3513 0 
L 2938 0 
L 2938 2094 
Q 2938 2591 2744 2837 
Q 2550 3084 2163 3084 
Q 1697 3084 1428 2787 
Q 1159 2491 1159 1978 
L 1159 0 
L 581 0 
L 581 3500 
L 1159 3500 
L 1159 2956 
Q 1366 3272 1645 3428 
Q 1925 3584 2291 3584 
Q 2894 3584 3203 3211 
Q 3513 2838 3513 2113 
z
" transform="scale(0.015625)"/>
       <path id="DejaVuSans-67" d="M 2906 1791 
Q 2906 2416 2648 2759 
Q 2391 3103 1925 3103 
Q 1463 3103 1205 2759 
Q 947 2416 947 1791 
Q 947 1169 1205 825 
Q 1463 481 1925 481 
Q 2391 481 2648 825 
Q 2906 1169 2906 1791 
z
M 3481 434 
Q 3481 -459 3084 -895 
Q 2688 -1331 1869 -1331 
Q 1566 -1331 1297 -1286 
Q 1028 -1241 775 -1147 
L 775 -588 
Q 1028 -725 1275 -790 
Q 1522 -856 1778 -856 
Q 2344 -856 2625 -561 
Q 2906 -266 2906 331 
L 2906 616 
Q 2728 306 2450 153 
Q 2172 0 1784 0 
Q 1141 0 747 490 
Q 353 981 353 1791 
Q 353 2603 747 3093 
Q 1141 3584 1784 3584 
Q 2172 3584 2450 3431 
Q 2728 3278 2906 2969 
L 2906 3500 
L 3481 3500 
L 3481 434 
z
" transform="scale(0.015625)"/>
       <path id="DejaVuSans-74" d="M 1172 4494 
L 1172 3500 
L 2356 3500 
L 2356 3053 
L 1172 3053 
L 1172 1153 
Q 1172 725 1289 603 
Q 1406 481 1766 481 
L 2356 481 
L 2356 0 
L 1766 0 
Q 1100 0 847 248 
Q 594 497 594 1153 
L 594 3053 
L 172 3053 
L 172 3500 
L 594 3500 
L 594 4494 
L 1172 4494 
z
" transform="scale(0.015625)"/>
       <path id="DejaVuSans-68" d="M 3513 2113 
L 3513 0 
L 2938 0 
L 2938 2094 
Q 2938 2591 2744 2837 
Q 2550 3084 2163 3084 
Q 1697 3084 1428 2787 
Q 1159 2491 1159 1978 
L 1159 0 
L 581 0 
L 581 4863 
L 1159 4863 
L 1159 2956 
Q 1366 3272 1645 3428 
Q 1925 3584 2291 3584 
Q 2894 3584 3203 3211 
Q 3513 2838 3513 2113 
z
" transform="scale(0.015625)"/>
       <path id="DejaVuSans-20" transform="scale(0.015625)"/>
       <path id="DejaVuSans-6f" d="M 1959 3097 
Q 1497 3097 1228 2736 
Q 959 2375 959 1747 
Q 959 1119 1226 758 
Q 1494 397 1959 397 
Q 2419 397 2687 759 
Q 2956 1122 2956 1747 
Q 2956 2369 2687 2733 
Q 2419 3097 1959 3097 
z
M 1959 3584 
Q 2709 3584 3137 3096 
Q 3566 2609 3566 1747 
Q 3566 888 3137 398 
Q 2709 -91 1959 -91 
Q 1206 -91 779 398 
Q 353 888 353 1747 
Q 353 2609 779 3096 
Q 1206 3584 1959 3584 
z
" transform="scale(0.015625)"/>
       <path id="DejaVuSans-66" d="M 2375 4863 
L 2375 4384 
L 1825 4384 
Q 1516 4384 1395 4259 
Q 1275 4134 1275 3809 
L 1275 3500 
L 2222 3500 
L 2222 3053 
L 1275 3053 
L 1275 0 
L 697 0 
L 697 3053 
L 147 3053 
L 147 3500 
L 697 3500 
L 697 3744 
Q 697 4328 969 4595 
Q 1241 4863 1831 4863 
L 2375 4863 
z
" transform="scale(0.015625)"/>
       <path id="DejaVuSans-54" d="M -19 4666 
L 3928 4666 
L 3928 4134 
L 2272 4134 
L 2272 0 
L 1638 0 
L 1638 4134 
L -19 4134 
L -19 4666 
z
" transform="scale(0.015625)"/>
       <path id="DejaVuSans-72" d="M 2631 2963 
Q 2534 3019 2420 3045 
Q 2306 3072 2169 3072 
Q 1681 3072 1420 2755 
Q 1159 2438 1159 1844 
L 1159 0 
L 581 0 
L 581 3500 
L 1159 3500 
L 1159 2956 
Q 1341 3275 1631 3429 
Q 1922 3584 2338 3584 
Q 2397 3584 2469 3576 
Q 2541 3569 2628 3553 
L 2631 2963 
z
" transform="scale(0.015625)"/>
       <path id="DejaVuSans-61" d="M 2194 1759 
Q 1497 1759 1228 1600 
Q 959 1441 959 1056 
Q 959 750 1161 570 
Q 1363 391 1709 391 
Q 2188 391 2477 730 
Q 2766 1069 2766 1631 
L 2766 1759 
L 2194 1759 
z
M 3341 1997 
L 3341 0 
L 2766 0 
L 2766 531 
Q 2569 213 2275 61 
Q 1981 -91 1556 -91 
Q 1019 -91 701 211 
Q 384 513 384 1019 
Q 384 1609 779 1909 
Q 1175 2209 1959 2209 
L 2766 2209 
L 2766 2266 
Q 2766 2663 2505 2880 
Q 2244 3097 1772 3097 
Q 1472 3097 1187 3025 
Q 903 2953 641 2809 
L 641 3341 
Q 956 3463 1253 3523 
Q 1550 3584 1831 3584 
Q 2591 3584 2966 3190 
Q 3341 2797 3341 1997 
z
" transform="scale(0.015625)"/>
       <path id="DejaVuSans-6a" d="M 603 3500 
L 1178 3500 
L 1178 -63 
Q 1178 -731 923 -1031 
Q 669 -1331 103 -1331 
L -116 -1331 
L -116 -844 
L 38 -844 
Q 366 -844 484 -692 
Q 603 -541 603 -63 
L 603 3500 
z
M 603 4863 
L 1178 4863 
L 1178 4134 
L 603 4134 
L 603 4863 
z
" transform="scale(0.015625)"/>
       <path id="DejaVuSans-63" d="M 3122 3366 
L 3122 2828 
Q 2878 2963 2633 3030 
Q 2388 3097 2138 3097 
Q 1578 3097 1268 2742 
Q 959 2388 959 1747 
Q 959 1106 1268 751 
Q 1578 397 2138 397 
Q 2388 397 2633 464 
Q 2878 531 3122 666 
L 3122 134 
Q 2881 22 2623 -34 
Q 2366 -91 2075 -91 
Q 1284 -91 818 406 
Q 353 903 353 1747 
Q 353 2603 823 3093 
Q 1294 3584 2113 3584 
Q 2378 3584 2631 3529 
Q 2884 3475 3122 3366 
z
" transform="scale(0.015625)"/>
       <path id="DejaVuSans-79" d="M 2059 -325 
Q 1816 -950 1584 -1140 
Q 1353 -1331 966 -1331 
L 506 -1331 
L 506 -850 
L 844 -850 
Q 1081 -850 1212 -737 
Q 1344 -625 1503 -206 
L 1606 56 
L 191 3500 
L 800 3500 
L 1894 763 
L 2988 3500 
L 3597 3500 
L 2059 -325 
z
" transform="scale(0.015625)"/>
      </defs>
      <use xlink:href="#DejaVuSans-4c"/>
      <use xlink:href="#DejaVuSans-65" x="53.962891"/>
      <use xlink:href="#DejaVuSans-6e" x="115.486328"/>
      <use xlink:href="#DejaVuSans-67" x="178.865234"/>
      <use xlink:href="#DejaVuSans-74" x="242.341797"/>
      <use xlink:href="#DejaVuSans-68" x="281.550781"/>
      <use xlink:href="#DejaVuSans-20" x="344.929688"/>
      <use xlink:href="#DejaVuSans-6f" x="376.716797"/>
      <use xlink:href="#DejaVuSans-66" x="437.898438"/>
      <use xlink:href="#DejaVuSans-20" x="473.103516"/>
      <use xlink:href="#DejaVuSans-54" x="504.890625"/>
      <use xlink:href="#DejaVuSans-72" x="551.224609"/>
      <use xlink:href="#DejaVuSans-61" x="592.337891"/>
      <use xlink:href="#DejaVuSans-6a" x="653.617188"/>
      <use xlink:href="#DejaVuSans-65" x="681.400391"/>
      <use xlink:href="#DejaVuSans-63" x="742.923828"/>
      <use xlink:href="#DejaVuSans-74" x="797.904297"/>
      <use xlink:href="#DejaVuSans-6f" x="837.113281"/>
      <use xlink:href="#DejaVuSans-72" x="898.294922"/>
      <use xlink:href="#DejaVuSans-79" x="939.408203"/>
     </g>
    </g>
   </g>
   <g id="matplotlib.axis_2">
    <g id="ytick_1">
     <g id="line2d_13">
      <path d="M 89.46 394.095387 
L 644.112 394.095387 
" clip-path="url(#p87e4eaa9a8)" style="fill: none; stroke: #b0b0b0; stroke-width: 0.8; stroke-linecap: square"/>
     </g>
     <g id="line2d_14">
      <defs>
       <path id="mc1b124b478" d="M 0 0 
L -3.5 0 
" style="stroke: #000000; stroke-width: 0.8"/>
      </defs>
      <g>
       <use xlink:href="#mc1b124b478" x="89.46" y="394.095387" style="stroke: #000000; stroke-width: 0.8"/>
      </g>
     </g>
     <g id="text_8">
      <!-- 0.1 -->
      <g transform="translate(66.556875 397.894606)scale(0.1 -0.1)">
       <defs>
        <path id="DejaVuSans-2e" d="M 684 794 
L 1344 794 
L 1344 0 
L 684 0 
L 684 794 
z
" transform="scale(0.015625)"/>
       </defs>
       <use xlink:href="#DejaVuSans-30"/>
       <use xlink:href="#DejaVuSans-2e" x="63.623047"/>
       <use xlink:href="#DejaVuSans-31" x="95.410156"/>
      </g>
     </g>
    </g>
    <g id="ytick_2">
     <g id="line2d_15">
      <path d="M 89.46 352.291724 
L 644.112 352.291724 
" clip-path="url(#p87e4eaa9a8)" style="fill: none; stroke: #b0b0b0; stroke-width: 0.8; stroke-linecap: square"/>
     </g>
     <g id="line2d_16">
      <g>
       <use xlink:href="#mc1b124b478" x="89.46" y="352.291724" style="stroke: #000000; stroke-width: 0.8"/>
      </g>
     </g>
     <g id="text_9">
      <!-- 0.2 -->
      <g transform="translate(66.556875 356.090943)scale(0.1 -0.1)">
       <use xlink:href="#DejaVuSans-30"/>
       <use xlink:href="#DejaVuSans-2e" x="63.623047"/>
       <use xlink:href="#DejaVuSans-32" x="95.410156"/>
      </g>
     </g>
    </g>
    <g id="ytick_3">
     <g id="line2d_17">
      <path d="M 89.46 310.48806 
L 644.112 310.48806 
" clip-path="url(#p87e4eaa9a8)" style="fill: none; stroke: #b0b0b0; stroke-width: 0.8; stroke-linecap: square"/>
     </g>
     <g id="line2d_18">
      <g>
       <use xlink:href="#mc1b124b478" x="89.46" y="310.48806" style="stroke: #000000; stroke-width: 0.8"/>
      </g>
     </g>
     <g id="text_10">
      <!-- 0.3 -->
      <g transform="translate(66.556875 314.287279)scale(0.1 -0.1)">
       <use xlink:href="#DejaVuSans-30"/>
       <use xlink:href="#DejaVuSans-2e" x="63.623047"/>
       <use xlink:href="#DejaVuSans-33" x="95.410156"/>
      </g>
     </g>
    </g>
    <g id="ytick_4">
     <g id="line2d_19">
      <path d="M 89.46 268.684397 
L 644.112 268.684397 
" clip-path="url(#p87e4eaa9a8)" style="fill: none; stroke: #b0b0b0; stroke-width: 0.8; stroke-linecap: square"/>
     </g>
     <g id="line2d_20">
      <g>
       <use xlink:href="#mc1b124b478" x="89.46" y="268.684397" style="stroke: #000000; stroke-width: 0.8"/>
      </g>
     </g>
     <g id="text_11">
      <!-- 0.4 -->
      <g transform="translate(66.556875 272.483616)scale(0.1 -0.1)">
       <use xlink:href="#DejaVuSans-30"/>
       <use xlink:href="#DejaVuSans-2e" x="63.623047"/>
       <use xlink:href="#DejaVuSans-34" x="95.410156"/>
      </g>
     </g>
    </g>
    <g id="ytick_5">
     <g id="line2d_21">
      <path d="M 89.46 226.880734 
L 644.112 226.880734 
" clip-path="url(#p87e4eaa9a8)" style="fill: none; stroke: #b0b0b0; stroke-width: 0.8; stroke-linecap: square"/>
     </g>
     <g id="line2d_22">
      <g>
       <use xlink:href="#mc1b124b478" x="89.46" y="226.880734" style="stroke: #000000; stroke-width: 0.8"/>
      </g>
     </g>
     <g id="text_12">
      <!-- 0.5 -->
      <g transform="translate(66.556875 230.679953)scale(0.1 -0.1)">
       <use xlink:href="#DejaVuSans-30"/>
       <use xlink:href="#DejaVuSans-2e" x="63.623047"/>
       <use xlink:href="#DejaVuSans-35" x="95.410156"/>
      </g>
     </g>
    </g>
    <g id="ytick_6">
     <g id="line2d_23">
      <path d="M 89.46 185.077071 
L 644.112 185.077071 
" clip-path="url(#p87e4eaa9a8)" style="fill: none; stroke: #b0b0b0; stroke-width: 0.8; stroke-linecap: square"/>
     </g>
     <g id="line2d_24">
      <g>
       <use xlink:href="#mc1b124b478" x="89.46" y="185.077071" style="stroke: #000000; stroke-width: 0.8"/>
      </g>
     </g>
     <g id="text_13">
      <!-- 0.6 -->
      <g transform="translate(66.556875 188.876289)scale(0.1 -0.1)">
       <defs>
        <path id="DejaVuSans-36" d="M 2113 2584 
Q 1688 2584 1439 2293 
Q 1191 2003 1191 1497 
Q 1191 994 1439 701 
Q 1688 409 2113 409 
Q 2538 409 2786 701 
Q 3034 994 3034 1497 
Q 3034 2003 2786 2293 
Q 2538 2584 2113 2584 
z
M 3366 4563 
L 3366 3988 
Q 3128 4100 2886 4159 
Q 2644 4219 2406 4219 
Q 1781 4219 1451 3797 
Q 1122 3375 1075 2522 
Q 1259 2794 1537 2939 
Q 1816 3084 2150 3084 
Q 2853 3084 3261 2657 
Q 3669 2231 3669 1497 
Q 3669 778 3244 343 
Q 2819 -91 2113 -91 
Q 1303 -91 875 529 
Q 447 1150 447 2328 
Q 447 3434 972 4092 
Q 1497 4750 2381 4750 
Q 2619 4750 2861 4703 
Q 3103 4656 3366 4563 
z
" transform="scale(0.015625)"/>
       </defs>
       <use xlink:href="#DejaVuSans-30"/>
       <use xlink:href="#DejaVuSans-2e" x="63.623047"/>
       <use xlink:href="#DejaVuSans-36" x="95.410156"/>
      </g>
     </g>
    </g>
    <g id="ytick_7">
     <g id="line2d_25">
      <path d="M 89.46 143.273407 
L 644.112 143.273407 
" clip-path="url(#p87e4eaa9a8)" style="fill: none; stroke: #b0b0b0; stroke-width: 0.8; stroke-linecap: square"/>
     </g>
     <g id="line2d_26">
      <g>
       <use xlink:href="#mc1b124b478" x="89.46" y="143.273407" style="stroke: #000000; stroke-width: 0.8"/>
      </g>
     </g>
     <g id="text_14">
      <!-- 0.7 -->
      <g transform="translate(66.556875 147.072626)scale(0.1 -0.1)">
       <defs>
        <path id="DejaVuSans-37" d="M 525 4666 
L 3525 4666 
L 3525 4397 
L 1831 0 
L 1172 0 
L 2766 4134 
L 525 4134 
L 525 4666 
z
" transform="scale(0.015625)"/>
       </defs>
       <use xlink:href="#DejaVuSans-30"/>
       <use xlink:href="#DejaVuSans-2e" x="63.623047"/>
       <use xlink:href="#DejaVuSans-37" x="95.410156"/>
      </g>
     </g>
    </g>
    <g id="ytick_8">
     <g id="line2d_27">
      <path d="M 89.46 101.469744 
L 644.112 101.469744 
" clip-path="url(#p87e4eaa9a8)" style="fill: none; stroke: #b0b0b0; stroke-width: 0.8; stroke-linecap: square"/>
     </g>
     <g id="line2d_28">
      <g>
       <use xlink:href="#mc1b124b478" x="89.46" y="101.469744" style="stroke: #000000; stroke-width: 0.8"/>
      </g>
     </g>
     <g id="text_15">
      <!-- 0.8 -->
      <g transform="translate(66.556875 105.268963)scale(0.1 -0.1)">
       <defs>
        <path id="DejaVuSans-38" d="M 2034 2216 
Q 1584 2216 1326 1975 
Q 1069 1734 1069 1313 
Q 1069 891 1326 650 
Q 1584 409 2034 409 
Q 2484 409 2743 651 
Q 3003 894 3003 1313 
Q 3003 1734 2745 1975 
Q 2488 2216 2034 2216 
z
M 1403 2484 
Q 997 2584 770 2862 
Q 544 3141 544 3541 
Q 544 4100 942 4425 
Q 1341 4750 2034 4750 
Q 2731 4750 3128 4425 
Q 3525 4100 3525 3541 
Q 3525 3141 3298 2862 
Q 3072 2584 2669 2484 
Q 3125 2378 3379 2068 
Q 3634 1759 3634 1313 
Q 3634 634 3220 271 
Q 2806 -91 2034 -91 
Q 1263 -91 848 271 
Q 434 634 434 1313 
Q 434 1759 690 2068 
Q 947 2378 1403 2484 
z
M 1172 3481 
Q 1172 3119 1398 2916 
Q 1625 2713 2034 2713 
Q 2441 2713 2670 2916 
Q 2900 3119 2900 3481 
Q 2900 3844 2670 4047 
Q 2441 4250 2034 4250 
Q 1625 4250 1398 4047 
Q 1172 3844 1172 3481 
z
" transform="scale(0.015625)"/>
       </defs>
       <use xlink:href="#DejaVuSans-30"/>
       <use xlink:href="#DejaVuSans-2e" x="63.623047"/>
       <use xlink:href="#DejaVuSans-38" x="95.410156"/>
      </g>
     </g>
    </g>
    <g id="ytick_9">
     <g id="line2d_29">
      <path d="M 89.46 59.666081 
L 644.112 59.666081 
" clip-path="url(#p87e4eaa9a8)" style="fill: none; stroke: #b0b0b0; stroke-width: 0.8; stroke-linecap: square"/>
     </g>
     <g id="line2d_30">
      <g>
       <use xlink:href="#mc1b124b478" x="89.46" y="59.666081" style="stroke: #000000; stroke-width: 0.8"/>
      </g>
     </g>
     <g id="text_16">
      <!-- 0.9 -->
      <g transform="translate(66.556875 63.465299)scale(0.1 -0.1)">
       <defs>
        <path id="DejaVuSans-39" d="M 703 97 
L 703 672 
Q 941 559 1184 500 
Q 1428 441 1663 441 
Q 2288 441 2617 861 
Q 2947 1281 2994 2138 
Q 2813 1869 2534 1725 
Q 2256 1581 1919 1581 
Q 1219 1581 811 2004 
Q 403 2428 403 3163 
Q 403 3881 828 4315 
Q 1253 4750 1959 4750 
Q 2769 4750 3195 4129 
Q 3622 3509 3622 2328 
Q 3622 1225 3098 567 
Q 2575 -91 1691 -91 
Q 1453 -91 1209 -44 
Q 966 3 703 97 
z
M 1959 2075 
Q 2384 2075 2632 2365 
Q 2881 2656 2881 3163 
Q 2881 3666 2632 3958 
Q 2384 4250 1959 4250 
Q 1534 4250 1286 3958 
Q 1038 3666 1038 3163 
Q 1038 2656 1286 2365 
Q 1534 2075 1959 2075 
z
" transform="scale(0.015625)"/>
       </defs>
       <use xlink:href="#DejaVuSans-30"/>
       <use xlink:href="#DejaVuSans-2e" x="63.623047"/>
       <use xlink:href="#DejaVuSans-39" x="95.410156"/>
      </g>
     </g>
    </g>
    <g id="text_17">
     <!-- Cosine Similarity -->
     <g transform="translate(60.477187 282.35835)rotate(-90)scale(0.1 -0.1)">
      <defs>
       <path id="DejaVuSans-43" d="M 4122 4306 
L 4122 3641 
Q 3803 3938 3442 4084 
Q 3081 4231 2675 4231 
Q 1875 4231 1450 3742 
Q 1025 3253 1025 2328 
Q 1025 1406 1450 917 
Q 1875 428 2675 428 
Q 3081 428 3442 575 
Q 3803 722 4122 1019 
L 4122 359 
Q 3791 134 3420 21 
Q 3050 -91 2638 -91 
Q 1578 -91 968 557 
Q 359 1206 359 2328 
Q 359 3453 968 4101 
Q 1578 4750 2638 4750 
Q 3056 4750 3426 4639 
Q 3797 4528 4122 4306 
z
" transform="scale(0.015625)"/>
       <path id="DejaVuSans-73" d="M 2834 3397 
L 2834 2853 
Q 2591 2978 2328 3040 
Q 2066 3103 1784 3103 
Q 1356 3103 1142 2972 
Q 928 2841 928 2578 
Q 928 2378 1081 2264 
Q 1234 2150 1697 2047 
L 1894 2003 
Q 2506 1872 2764 1633 
Q 3022 1394 3022 966 
Q 3022 478 2636 193 
Q 2250 -91 1575 -91 
Q 1294 -91 989 -36 
Q 684 19 347 128 
L 347 722 
Q 666 556 975 473 
Q 1284 391 1588 391 
Q 1994 391 2212 530 
Q 2431 669 2431 922 
Q 2431 1156 2273 1281 
Q 2116 1406 1581 1522 
L 1381 1569 
Q 847 1681 609 1914 
Q 372 2147 372 2553 
Q 372 3047 722 3315 
Q 1072 3584 1716 3584 
Q 2034 3584 2315 3537 
Q 2597 3491 2834 3397 
z
" transform="scale(0.015625)"/>
       <path id="DejaVuSans-69" d="M 603 3500 
L 1178 3500 
L 1178 0 
L 603 0 
L 603 3500 
z
M 603 4863 
L 1178 4863 
L 1178 4134 
L 603 4134 
L 603 4863 
z
" transform="scale(0.015625)"/>
       <path id="DejaVuSans-53" d="M 3425 4513 
L 3425 3897 
Q 3066 4069 2747 4153 
Q 2428 4238 2131 4238 
Q 1616 4238 1336 4038 
Q 1056 3838 1056 3469 
Q 1056 3159 1242 3001 
Q 1428 2844 1947 2747 
L 2328 2669 
Q 3034 2534 3370 2195 
Q 3706 1856 3706 1288 
Q 3706 609 3251 259 
Q 2797 -91 1919 -91 
Q 1588 -91 1214 -16 
Q 841 59 441 206 
L 441 856 
Q 825 641 1194 531 
Q 1563 422 1919 422 
Q 2459 422 2753 634 
Q 3047 847 3047 1241 
Q 3047 1584 2836 1778 
Q 2625 1972 2144 2069 
L 1759 2144 
Q 1053 2284 737 2584 
Q 422 2884 422 3419 
Q 422 4038 858 4394 
Q 1294 4750 2059 4750 
Q 2388 4750 2728 4690 
Q 3069 4631 3425 4513 
z
" transform="scale(0.015625)"/>
       <path id="DejaVuSans-6d" d="M 3328 2828 
Q 3544 3216 3844 3400 
Q 4144 3584 4550 3584 
Q 5097 3584 5394 3201 
Q 5691 2819 5691 2113 
L 5691 0 
L 5113 0 
L 5113 2094 
Q 5113 2597 4934 2840 
Q 4756 3084 4391 3084 
Q 3944 3084 3684 2787 
Q 3425 2491 3425 1978 
L 3425 0 
L 2847 0 
L 2847 2094 
Q 2847 2600 2669 2842 
Q 2491 3084 2119 3084 
Q 1678 3084 1418 2786 
Q 1159 2488 1159 1978 
L 1159 0 
L 581 0 
L 581 3500 
L 1159 3500 
L 1159 2956 
Q 1356 3278 1631 3431 
Q 1906 3584 2284 3584 
Q 2666 3584 2933 3390 
Q 3200 3197 3328 2828 
z
" transform="scale(0.015625)"/>
       <path id="DejaVuSans-6c" d="M 603 4863 
L 1178 4863 
L 1178 0 
L 603 0 
L 603 4863 
z
" transform="scale(0.015625)"/>
      </defs>
      <use xlink:href="#DejaVuSans-43"/>
      <use xlink:href="#DejaVuSans-6f" x="69.824219"/>
      <use xlink:href="#DejaVuSans-73" x="131.005859"/>
      <use xlink:href="#DejaVuSans-69" x="183.105469"/>
      <use xlink:href="#DejaVuSans-6e" x="210.888672"/>
      <use xlink:href="#DejaVuSans-65" x="274.267578"/>
      <use xlink:href="#DejaVuSans-20" x="335.791016"/>
      <use xlink:href="#DejaVuSans-53" x="367.578125"/>
      <use xlink:href="#DejaVuSans-69" x="431.054688"/>
      <use xlink:href="#DejaVuSans-6d" x="458.837891"/>
      <use xlink:href="#DejaVuSans-69" x="556.25"/>
      <use xlink:href="#DejaVuSans-6c" x="584.033203"/>
      <use xlink:href="#DejaVuSans-61" x="611.816406"/>
      <use xlink:href="#DejaVuSans-72" x="673.095703"/>
      <use xlink:href="#DejaVuSans-69" x="714.208984"/>
      <use xlink:href="#DejaVuSans-74" x="741.992188"/>
      <use xlink:href="#DejaVuSans-79" x="781.201172"/>
     </g>
    </g>
   </g>
   <g id="line2d_31">
    <path d="M 114.671455 374.48823 
L 125.176227 313.849585 
L 135.681 286.403493 
L 146.185773 272.670517 
L 156.690545 256.416148 
L 167.195318 231.744767 
L 177.700091 218.373871 
L 188.204864 208.492367 
L 198.709636 195.205417 
L 209.214409 189.026792 
L 219.719182 180.702147 
L 230.223955 172.263681 
L 240.728727 161.663274 
L 251.2335 153.317724 
L 261.738273 145.026941 
L 272.243045 142.803579 
L 282.747818 139.18908 
L 293.252591 136.169522 
L 303.757364 133.182157 
L 314.262136 128.525981 
L 324.766909 124.202372 
L 335.271682 120.913113 
L 345.776455 117.402617 
L 356.281227 115.417411 
L 366.786 112.930079 
L 377.290773 111.268095 
L 387.795545 108.923737 
L 398.300318 107.553929 
L 408.805091 105.907692 
L 419.309864 104.594645 
L 429.814636 103.27041 
L 440.319409 101.861508 
L 450.824182 101.03287 
L 461.328955 99.430264 
L 471.833727 95.219652 
L 482.3385 93.321132 
L 492.843273 92.146 
L 503.348045 90.888368 
L 513.852818 89.415279 
L 524.357591 87.811277 
L 534.862364 85.976619 
L 545.367136 84.546188 
L 555.871909 83.286962 
L 566.376682 82.377693 
L 576.881455 81.070701 
L 587.386227 80.230951 
L 597.891 77.853901 
L 608.395773 76.519151 
L 618.900545 75.75916 
" clip-path="url(#p87e4eaa9a8)" style="fill: none; stroke: #0000ff; stroke-width: 2; stroke-linecap: square"/>
   </g>
   <g id="line2d_32">
    <path d="M 114.671455 393.704904 
L 125.176227 360.788662 
L 135.681 372.056338 
L 146.185773 386.984881 
L 156.690545 393.464998 
L 167.195318 357.188004 
L 177.700091 296.909826 
L 188.204864 266.233454 
L 198.709636 262.203004 
L 209.214409 254.622366 
L 219.719182 264.813388 
L 230.223955 253.790216 
L 240.728727 267.892186 
L 251.2335 266.91553 
L 261.738273 269.522438 
L 272.243045 261.731688 
L 282.747818 271.416884 
L 293.252591 262.090317 
L 303.757364 270.687491 
L 314.262136 288.765667 
L 324.766909 269.915029 
L 335.271682 262.279213 
L 345.776455 262.231372 
L 356.281227 263.471039 
L 366.786 270.368031 
L 377.290773 269.229465 
L 387.795545 276.295793 
L 398.300318 273.450878 
L 408.805091 275.825237 
L 419.309864 263.911533 
L 429.814636 266.156473 
L 440.319409 266.312939 
L 450.824182 271.38362 
L 461.328955 272.880143 
L 471.833727 270.322147 
L 482.3385 279.954245 
L 492.843273 291.941753 
L 503.348045 299.543197 
L 513.852818 291.719481 
L 524.357591 315.995705 
L 534.862364 320.191516 
L 545.367136 330.633203 
L 555.871909 324.649889 
L 566.376682 328.194596 
L 576.881455 319.937139 
L 587.386227 315.209601 
L 597.891 299.706004 
L 608.395773 299.475323 
L 618.900545 303.438086 
" clip-path="url(#p87e4eaa9a8)" style="fill: none; stroke: #ff0000; stroke-width: 2; stroke-linecap: square"/>
   </g>
   <g id="line2d_33">
    <path d="M 114.671455 352.20845 
L 125.176227 317.533291 
L 135.681 260.12639 
L 146.185773 253.946632 
L 156.690545 238.731697 
L 167.195318 231.866137 
L 177.700091 206.687983 
L 188.204864 188.934101 
L 198.709636 183.303848 
L 209.214409 175.946802 
L 219.719182 163.122608 
L 230.223955 159.589613 
L 240.728727 154.474068 
L 251.2335 134.874739 
L 261.738273 124.074822 
L 272.243045 119.865356 
L 282.747818 116.370459 
L 293.252591 115.214911 
L 303.757364 112.556674 
L 314.262136 106.976554 
L 324.766909 104.013109 
L 335.271682 101.206467 
L 345.776455 97.422558 
L 356.281227 95.656969 
L 366.786 94.784976 
L 377.290773 93.132162 
L 387.795545 92.604596 
L 398.300318 91.955336 
L 408.805091 90.289315 
L 419.309864 89.111119 
L 429.814636 88.219043 
L 440.319409 87.302947 
L 450.824182 86.001337 
L 461.328955 84.97745 
L 471.833727 84.285034 
L 482.3385 83.770201 
L 492.843273 83.171771 
L 503.348045 81.594903 
L 513.852818 81.03958 
L 524.357591 80.527113 
L 534.862364 79.673459 
L 545.367136 78.783277 
L 555.871909 78.279432 
L 566.376682 77.530429 
L 576.881455 77.05337 
L 587.386227 75.771594 
L 597.891 74.886146 
L 608.395773 74.371636 
L 618.900545 73.7676 
" clip-path="url(#p87e4eaa9a8)" style="fill: none; stroke-dasharray: 2,3.3; stroke-dashoffset: 0; stroke: #0000ff; stroke-width: 2"/>
   </g>
   <g id="line2d_34">
    <path d="M 114.671455 387.709948 
L 125.176227 379.436588 
L 135.681 367.184544 
L 146.185773 368.039923 
L 156.690545 376.620882 
L 167.195318 367.930743 
L 177.700091 371.984802 
L 188.204864 370.977566 
L 198.709636 369.634581 
L 209.214409 368.110264 
L 219.719182 365.239491 
L 230.223955 368.343013 
L 240.728727 370.334784 
L 251.2335 375.038751 
L 261.738273 378.459645 
L 272.243045 375.177314 
L 282.747818 375.896111 
L 293.252591 375.162302 
L 303.757364 381.508269 
L 314.262136 382.297057 
L 324.766909 380.801375 
L 335.271682 381.073998 
L 345.776455 376.283158 
L 356.281227 375.057295 
L 366.786 376.940903 
L 377.290773 376.995371 
L 387.795545 376.770789 
L 398.300318 376.554043 
L 408.805091 377.793186 
L 419.309864 377.399131 
L 429.814636 378.551801 
L 440.319409 379.807738 
L 450.824182 377.126073 
L 461.328955 375.362048 
L 471.833727 374.490903 
L 482.3385 374.573228 
L 492.843273 374.222578 
L 503.348045 378.590061 
L 513.852818 376.85864 
L 524.357591 380.28126 
L 534.862364 380.563568 
L 545.367136 380.162817 
L 555.871909 381.61173 
L 566.376682 381.006996 
L 576.881455 382.542097 
L 587.386227 381.818933 
L 597.891 380.052971 
L 608.395773 380.267462 
L 618.900545 380.644374 
" clip-path="url(#p87e4eaa9a8)" style="fill: none; stroke-dasharray: 2,3.3; stroke-dashoffset: 0; stroke: #ff0000; stroke-width: 2"/>
   </g>
   <g id="line2d_35">
    <path d="M 114.671455 406.9116 
L 125.176227 395.419643 
L 135.681 388.288771 
L 146.185773 384.52298 
L 156.690545 378.498248 
L 167.195318 371.31714 
L 177.700091 365.512487 
L 188.204864 361.694062 
L 198.709636 359.256402 
L 209.214409 355.614961 
L 219.719182 351.962327 
L 230.223955 347.555439 
L 240.728727 345.529288 
L 251.2335 343.746201 
L 261.738273 340.355195 
L 272.243045 336.813491 
L 282.747818 335.284482 
L 293.252591 333.225946 
L 303.757364 331.442785 
L 314.262136 329.506758 
L 324.766909 326.924754 
L 335.271682 324.108569 
L 345.776455 322.233259 
L 356.281227 320.62441 
L 366.786 319.175142 
L 377.290773 317.376501 
L 387.795545 315.284053 
L 398.300318 312.597535 
L 408.805091 310.58629 
L 419.309864 309.016076 
L 429.814636 306.428067 
L 440.319409 304.404526 
L 450.824182 301.48334 
L 461.328955 299.578653 
L 471.833727 298.221055 
L 482.3385 295.561522 
L 492.843273 293.787001 
L 503.348045 292.062824 
L 513.852818 290.984694 
L 524.357591 289.43592 
L 534.862364 287.840066 
L 545.367136 285.724507 
L 555.871909 284.309175 
L 566.376682 282.938122 
L 576.881455 281.631615 
L 587.386227 280.107011 
L 597.891 278.972331 
L 608.395773 276.882001 
L 618.900545 275.458185 
" clip-path="url(#p87e4eaa9a8)" style="fill: none; stroke: #008000; stroke-width: 2; stroke-linecap: square"/>
   </g>
   <g id="line2d_36">
    <path d="M 114.671455 406.81073 
L 125.176227 396.844402 
L 135.681 387.786549 
L 146.185773 382.43174 
L 156.690545 379.551947 
L 167.195318 374.881301 
L 177.700091 370.381933 
L 188.204864 366.961226 
L 198.709636 364.780733 
L 209.214409 359.628387 
L 219.719182 354.844704 
L 230.223955 352.625373 
L 240.728727 349.980397 
L 251.2335 346.994976 
L 261.738273 342.682872 
L 272.243045 339.003639 
L 282.747818 336.561867 
L 293.252591 333.021216 
L 303.757364 330.734477 
L 314.262136 327.830846 
L 324.766909 325.895374 
L 335.271682 321.650875 
L 345.776455 319.139673 
L 356.281227 317.490484 
L 366.786 315.608621 
L 377.290773 313.490732 
L 387.795545 311.130152 
L 398.300318 307.751841 
L 408.805091 305.81688 
L 419.309864 302.927675 
L 429.814636 300.594803 
L 440.319409 298.890236 
L 450.824182 296.765757 
L 461.328955 294.455098 
L 471.833727 292.182014 
L 482.3385 290.060114 
L 492.843273 287.606295 
L 503.348045 284.275089 
L 513.852818 282.282171 
L 524.357591 280.598622 
L 534.862364 279.207622 
L 545.367136 278.322274 
L 555.871909 276.48409 
L 566.376682 274.161658 
L 576.881455 272.578686 
L 587.386227 271.002678 
L 597.891 269.488115 
L 608.395773 268.430616 
L 618.900545 267.529607 
" clip-path="url(#p87e4eaa9a8)" style="fill: none; stroke-dasharray: 2,3.3; stroke-dashoffset: 0; stroke: #008000; stroke-width: 2"/>
   </g>
   <g id="patch_3">
    <path d="M 89.46 423.5688 
L 89.46 57.1104 
" style="fill: none; stroke: #000000; stroke-width: 0.8; stroke-linejoin: miter; stroke-linecap: square"/>
   </g>
   <g id="patch_4">
    <path d="M 89.46 423.5688 
L 644.112 423.5688 
" style="fill: none; stroke: #000000; stroke-width: 0.8; stroke-linejoin: miter; stroke-linecap: square"/>
   </g>
   <g id="text_18">
    <!-- Cosine Sim. vs. length of optimized trajectory on Ant-v4 -->
    <g transform="translate(198.69975 51.1104)scale(0.12 -0.12)">
     <defs>
      <path id="DejaVuSans-76" d="M 191 3500 
L 800 3500 
L 1894 563 
L 2988 3500 
L 3597 3500 
L 2284 0 
L 1503 0 
L 191 3500 
z
" transform="scale(0.015625)"/>
      <path id="DejaVuSans-70" d="M 1159 525 
L 1159 -1331 
L 581 -1331 
L 581 3500 
L 1159 3500 
L 1159 2969 
Q 1341 3281 1617 3432 
Q 1894 3584 2278 3584 
Q 2916 3584 3314 3078 
Q 3713 2572 3713 1747 
Q 3713 922 3314 415 
Q 2916 -91 2278 -91 
Q 1894 -91 1617 61 
Q 1341 213 1159 525 
z
M 3116 1747 
Q 3116 2381 2855 2742 
Q 2594 3103 2138 3103 
Q 1681 3103 1420 2742 
Q 1159 2381 1159 1747 
Q 1159 1113 1420 752 
Q 1681 391 2138 391 
Q 2594 391 2855 752 
Q 3116 1113 3116 1747 
z
" transform="scale(0.015625)"/>
      <path id="DejaVuSans-7a" d="M 353 3500 
L 3084 3500 
L 3084 2975 
L 922 459 
L 3084 459 
L 3084 0 
L 275 0 
L 275 525 
L 2438 3041 
L 353 3041 
L 353 3500 
z
" transform="scale(0.015625)"/>
      <path id="DejaVuSans-64" d="M 2906 2969 
L 2906 4863 
L 3481 4863 
L 3481 0 
L 2906 0 
L 2906 525 
Q 2725 213 2448 61 
Q 2172 -91 1784 -91 
Q 1150 -91 751 415 
Q 353 922 353 1747 
Q 353 2572 751 3078 
Q 1150 3584 1784 3584 
Q 2172 3584 2448 3432 
Q 2725 3281 2906 2969 
z
M 947 1747 
Q 947 1113 1208 752 
Q 1469 391 1925 391 
Q 2381 391 2643 752 
Q 2906 1113 2906 1747 
Q 2906 2381 2643 2742 
Q 2381 3103 1925 3103 
Q 1469 3103 1208 2742 
Q 947 2381 947 1747 
z
" transform="scale(0.015625)"/>
      <path id="DejaVuSans-41" d="M 2188 4044 
L 1331 1722 
L 3047 1722 
L 2188 4044 
z
M 1831 4666 
L 2547 4666 
L 4325 0 
L 3669 0 
L 3244 1197 
L 1141 1197 
L 716 0 
L 50 0 
L 1831 4666 
z
" transform="scale(0.015625)"/>
      <path id="DejaVuSans-2d" d="M 313 2009 
L 1997 2009 
L 1997 1497 
L 313 1497 
L 313 2009 
z
" transform="scale(0.015625)"/>
     </defs>
     <use xlink:href="#DejaVuSans-43"/>
     <use xlink:href="#DejaVuSans-6f" x="69.824219"/>
     <use xlink:href="#DejaVuSans-73" x="131.005859"/>
     <use xlink:href="#DejaVuSans-69" x="183.105469"/>
     <use xlink:href="#DejaVuSans-6e" x="210.888672"/>
     <use xlink:href="#DejaVuSans-65" x="274.267578"/>
     <use xlink:href="#DejaVuSans-20" x="335.791016"/>
     <use xlink:href="#DejaVuSans-53" x="367.578125"/>
     <use xlink:href="#DejaVuSans-69" x="431.054688"/>
     <use xlink:href="#DejaVuSans-6d" x="458.837891"/>
     <use xlink:href="#DejaVuSans-2e" x="556.25"/>
     <use xlink:href="#DejaVuSans-20" x="588.037109"/>
     <use xlink:href="#DejaVuSans-76" x="619.824219"/>
     <use xlink:href="#DejaVuSans-73" x="679.003906"/>
     <use xlink:href="#DejaVuSans-2e" x="731.103516"/>
     <use xlink:href="#DejaVuSans-20" x="762.890625"/>
     <use xlink:href="#DejaVuSans-6c" x="794.677734"/>
     <use xlink:href="#DejaVuSans-65" x="822.460938"/>
     <use xlink:href="#DejaVuSans-6e" x="883.984375"/>
     <use xlink:href="#DejaVuSans-67" x="947.363281"/>
     <use xlink:href="#DejaVuSans-74" x="1010.839844"/>
     <use xlink:href="#DejaVuSans-68" x="1050.048828"/>
     <use xlink:href="#DejaVuSans-20" x="1113.427734"/>
     <use xlink:href="#DejaVuSans-6f" x="1145.214844"/>
     <use xlink:href="#DejaVuSans-66" x="1206.396484"/>
     <use xlink:href="#DejaVuSans-20" x="1241.601562"/>
     <use xlink:href="#DejaVuSans-6f" x="1273.388672"/>
     <use xlink:href="#DejaVuSans-70" x="1334.570312"/>
     <use xlink:href="#DejaVuSans-74" x="1398.046875"/>
     <use xlink:href="#DejaVuSans-69" x="1437.255859"/>
     <use xlink:href="#DejaVuSans-6d" x="1465.039062"/>
     <use xlink:href="#DejaVuSans-69" x="1562.451172"/>
     <use xlink:href="#DejaVuSans-7a" x="1590.234375"/>
     <use xlink:href="#DejaVuSans-65" x="1642.724609"/>
     <use xlink:href="#DejaVuSans-64" x="1704.248047"/>
     <use xlink:href="#DejaVuSans-20" x="1767.724609"/>
     <use xlink:href="#DejaVuSans-74" x="1799.511719"/>
     <use xlink:href="#DejaVuSans-72" x="1838.720703"/>
     <use xlink:href="#DejaVuSans-61" x="1879.833984"/>
     <use xlink:href="#DejaVuSans-6a" x="1941.113281"/>
     <use xlink:href="#DejaVuSans-65" x="1968.896484"/>
     <use xlink:href="#DejaVuSans-63" x="2030.419922"/>
     <use xlink:href="#DejaVuSans-74" x="2085.400391"/>
     <use xlink:href="#DejaVuSans-6f" x="2124.609375"/>
     <use xlink:href="#DejaVuSans-72" x="2185.791016"/>
     <use xlink:href="#DejaVuSans-79" x="2226.904297"/>
     <use xlink:href="#DejaVuSans-20" x="2286.083984"/>
     <use xlink:href="#DejaVuSans-6f" x="2317.871094"/>
     <use xlink:href="#DejaVuSans-6e" x="2379.052734"/>
     <use xlink:href="#DejaVuSans-20" x="2442.431641"/>
     <use xlink:href="#DejaVuSans-41" x="2474.21875"/>
     <use xlink:href="#DejaVuSans-6e" x="2542.626953"/>
     <use xlink:href="#DejaVuSans-74" x="2606.005859"/>
     <use xlink:href="#DejaVuSans-2d" x="2645.214844"/>
     <use xlink:href="#DejaVuSans-76" x="2678.673828"/>
     <use xlink:href="#DejaVuSans-34" x="2737.853516"/>
    </g>
   </g>
   <g id="legend_1">
    <g id="patch_5">
     <path d="M 96.46 153.17915 
L 280.077187 153.17915 
Q 282.077187 153.17915 282.077187 151.17915 
L 282.077187 64.1104 
Q 282.077187 62.1104 280.077187 62.1104 
L 96.46 62.1104 
Q 94.46 62.1104 94.46 64.1104 
L 94.46 151.17915 
Q 94.46 153.17915 96.46 153.17915 
z
" style="fill: #ffffff; opacity: 0.8; stroke: #cccccc; stroke-linejoin: miter"/>
    </g>
    <g id="line2d_37">
     <path d="M 98.46 70.208838 
L 108.46 70.208838 
L 118.46 70.208838 
" style="fill: none; stroke: #0000ff; stroke-width: 2; stroke-linecap: square"/>
    </g>
    <g id="text_19">
     <!-- quad model, alpha-optim -->
     <g transform="translate(126.46 73.708838)scale(0.1 -0.1)">
      <defs>
       <path id="DejaVuSans-71" d="M 947 1747 
Q 947 1113 1208 752 
Q 1469 391 1925 391 
Q 2381 391 2643 752 
Q 2906 1113 2906 1747 
Q 2906 2381 2643 2742 
Q 2381 3103 1925 3103 
Q 1469 3103 1208 2742 
Q 947 2381 947 1747 
z
M 2906 525 
Q 2725 213 2448 61 
Q 2172 -91 1784 -91 
Q 1150 -91 751 415 
Q 353 922 353 1747 
Q 353 2572 751 3078 
Q 1150 3584 1784 3584 
Q 2172 3584 2448 3432 
Q 2725 3281 2906 2969 
L 2906 3500 
L 3481 3500 
L 3481 -1331 
L 2906 -1331 
L 2906 525 
z
" transform="scale(0.015625)"/>
       <path id="DejaVuSans-75" d="M 544 1381 
L 544 3500 
L 1119 3500 
L 1119 1403 
Q 1119 906 1312 657 
Q 1506 409 1894 409 
Q 2359 409 2629 706 
Q 2900 1003 2900 1516 
L 2900 3500 
L 3475 3500 
L 3475 0 
L 2900 0 
L 2900 538 
Q 2691 219 2414 64 
Q 2138 -91 1772 -91 
Q 1169 -91 856 284 
Q 544 659 544 1381 
z
M 1991 3584 
L 1991 3584 
z
" transform="scale(0.015625)"/>
       <path id="DejaVuSans-2c" d="M 750 794 
L 1409 794 
L 1409 256 
L 897 -744 
L 494 -744 
L 750 256 
L 750 794 
z
" transform="scale(0.015625)"/>
      </defs>
      <use xlink:href="#DejaVuSans-71"/>
      <use xlink:href="#DejaVuSans-75" x="63.476562"/>
      <use xlink:href="#DejaVuSans-61" x="126.855469"/>
      <use xlink:href="#DejaVuSans-64" x="188.134766"/>
      <use xlink:href="#DejaVuSans-20" x="251.611328"/>
      <use xlink:href="#DejaVuSans-6d" x="283.398438"/>
      <use xlink:href="#DejaVuSans-6f" x="380.810547"/>
      <use xlink:href="#DejaVuSans-64" x="441.992188"/>
      <use xlink:href="#DejaVuSans-65" x="505.46875"/>
      <use xlink:href="#DejaVuSans-6c" x="566.992188"/>
      <use xlink:href="#DejaVuSans-2c" x="594.775391"/>
      <use xlink:href="#DejaVuSans-20" x="626.5625"/>
      <use xlink:href="#DejaVuSans-61" x="658.349609"/>
      <use xlink:href="#DejaVuSans-6c" x="719.628906"/>
      <use xlink:href="#DejaVuSans-70" x="747.412109"/>
      <use xlink:href="#DejaVuSans-68" x="810.888672"/>
      <use xlink:href="#DejaVuSans-61" x="874.267578"/>
      <use xlink:href="#DejaVuSans-2d" x="935.546875"/>
      <use xlink:href="#DejaVuSans-6f" x="973.505859"/>
      <use xlink:href="#DejaVuSans-70" x="1034.6875"/>
      <use xlink:href="#DejaVuSans-74" x="1098.164062"/>
      <use xlink:href="#DejaVuSans-69" x="1137.373047"/>
      <use xlink:href="#DejaVuSans-6d" x="1165.15625"/>
     </g>
    </g>
    <g id="line2d_38">
     <path d="M 98.46 84.886963 
L 108.46 84.886963 
L 118.46 84.886963 
" style="fill: none; stroke: #ff0000; stroke-width: 2; stroke-linecap: square"/>
    </g>
    <g id="text_20">
     <!-- quad model, no alpha-optim -->
     <g transform="translate(126.46 88.386963)scale(0.1 -0.1)">
      <use xlink:href="#DejaVuSans-71"/>
      <use xlink:href="#DejaVuSans-75" x="63.476562"/>
      <use xlink:href="#DejaVuSans-61" x="126.855469"/>
      <use xlink:href="#DejaVuSans-64" x="188.134766"/>
      <use xlink:href="#DejaVuSans-20" x="251.611328"/>
      <use xlink:href="#DejaVuSans-6d" x="283.398438"/>
      <use xlink:href="#DejaVuSans-6f" x="380.810547"/>
      <use xlink:href="#DejaVuSans-64" x="441.992188"/>
      <use xlink:href="#DejaVuSans-65" x="505.46875"/>
      <use xlink:href="#DejaVuSans-6c" x="566.992188"/>
      <use xlink:href="#DejaVuSans-2c" x="594.775391"/>
      <use xlink:href="#DejaVuSans-20" x="626.5625"/>
      <use xlink:href="#DejaVuSans-6e" x="658.349609"/>
      <use xlink:href="#DejaVuSans-6f" x="721.728516"/>
      <use xlink:href="#DejaVuSans-20" x="782.910156"/>
      <use xlink:href="#DejaVuSans-61" x="814.697266"/>
      <use xlink:href="#DejaVuSans-6c" x="875.976562"/>
      <use xlink:href="#DejaVuSans-70" x="903.759766"/>
      <use xlink:href="#DejaVuSans-68" x="967.236328"/>
      <use xlink:href="#DejaVuSans-61" x="1030.615234"/>
      <use xlink:href="#DejaVuSans-2d" x="1091.894531"/>
      <use xlink:href="#DejaVuSans-6f" x="1129.853516"/>
      <use xlink:href="#DejaVuSans-70" x="1191.035156"/>
      <use xlink:href="#DejaVuSans-74" x="1254.511719"/>
      <use xlink:href="#DejaVuSans-69" x="1293.720703"/>
      <use xlink:href="#DejaVuSans-6d" x="1321.503906"/>
     </g>
    </g>
    <g id="line2d_39">
     <path d="M 98.46 99.565088 
L 108.46 99.565088 
L 118.46 99.565088 
" style="fill: none; stroke-dasharray: 2,3.3; stroke-dashoffset: 0; stroke: #0000ff; stroke-width: 2"/>
    </g>
    <g id="text_21">
     <!-- net model, alpha-optim -->
     <g transform="translate(126.46 103.065088)scale(0.1 -0.1)">
      <use xlink:href="#DejaVuSans-6e"/>
      <use xlink:href="#DejaVuSans-65" x="63.378906"/>
      <use xlink:href="#DejaVuSans-74" x="124.902344"/>
      <use xlink:href="#DejaVuSans-20" x="164.111328"/>
      <use xlink:href="#DejaVuSans-6d" x="195.898438"/>
      <use xlink:href="#DejaVuSans-6f" x="293.310547"/>
      <use xlink:href="#DejaVuSans-64" x="354.492188"/>
      <use xlink:href="#DejaVuSans-65" x="417.96875"/>
      <use xlink:href="#DejaVuSans-6c" x="479.492188"/>
      <use xlink:href="#DejaVuSans-2c" x="507.275391"/>
      <use xlink:href="#DejaVuSans-20" x="539.0625"/>
      <use xlink:href="#DejaVuSans-61" x="570.849609"/>
      <use xlink:href="#DejaVuSans-6c" x="632.128906"/>
      <use xlink:href="#DejaVuSans-70" x="659.912109"/>
      <use xlink:href="#DejaVuSans-68" x="723.388672"/>
      <use xlink:href="#DejaVuSans-61" x="786.767578"/>
      <use xlink:href="#DejaVuSans-2d" x="848.046875"/>
      <use xlink:href="#DejaVuSans-6f" x="886.005859"/>
      <use xlink:href="#DejaVuSans-70" x="947.1875"/>
      <use xlink:href="#DejaVuSans-74" x="1010.664062"/>
      <use xlink:href="#DejaVuSans-69" x="1049.873047"/>
      <use xlink:href="#DejaVuSans-6d" x="1077.65625"/>
     </g>
    </g>
    <g id="line2d_40">
     <path d="M 98.46 114.243213 
L 108.46 114.243213 
L 118.46 114.243213 
" style="fill: none; stroke-dasharray: 2,3.3; stroke-dashoffset: 0; stroke: #ff0000; stroke-width: 2"/>
    </g>
    <g id="text_22">
     <!-- net model, no alpha-optim -->
     <g transform="translate(126.46 117.743213)scale(0.1 -0.1)">
      <use xlink:href="#DejaVuSans-6e"/>
      <use xlink:href="#DejaVuSans-65" x="63.378906"/>
      <use xlink:href="#DejaVuSans-74" x="124.902344"/>
      <use xlink:href="#DejaVuSans-20" x="164.111328"/>
      <use xlink:href="#DejaVuSans-6d" x="195.898438"/>
      <use xlink:href="#DejaVuSans-6f" x="293.310547"/>
      <use xlink:href="#DejaVuSans-64" x="354.492188"/>
      <use xlink:href="#DejaVuSans-65" x="417.96875"/>
      <use xlink:href="#DejaVuSans-6c" x="479.492188"/>
      <use xlink:href="#DejaVuSans-2c" x="507.275391"/>
      <use xlink:href="#DejaVuSans-20" x="539.0625"/>
      <use xlink:href="#DejaVuSans-6e" x="570.849609"/>
      <use xlink:href="#DejaVuSans-6f" x="634.228516"/>
      <use xlink:href="#DejaVuSans-20" x="695.410156"/>
      <use xlink:href="#DejaVuSans-61" x="727.197266"/>
      <use xlink:href="#DejaVuSans-6c" x="788.476562"/>
      <use xlink:href="#DejaVuSans-70" x="816.259766"/>
      <use xlink:href="#DejaVuSans-68" x="879.736328"/>
      <use xlink:href="#DejaVuSans-61" x="943.115234"/>
      <use xlink:href="#DejaVuSans-2d" x="1004.394531"/>
      <use xlink:href="#DejaVuSans-6f" x="1042.353516"/>
      <use xlink:href="#DejaVuSans-70" x="1103.535156"/>
      <use xlink:href="#DejaVuSans-74" x="1167.011719"/>
      <use xlink:href="#DejaVuSans-69" x="1206.220703"/>
      <use xlink:href="#DejaVuSans-6d" x="1234.003906"/>
     </g>
    </g>
    <g id="line2d_41">
     <path d="M 98.46 128.921338 
L 108.46 128.921338 
L 118.46 128.921338 
" style="fill: none; stroke: #008000; stroke-width: 2; stroke-linecap: square"/>
    </g>
    <g id="text_23">
     <!-- quad model, random direction -->
     <g transform="translate(126.46 132.421338)scale(0.1 -0.1)">
      <use xlink:href="#DejaVuSans-71"/>
      <use xlink:href="#DejaVuSans-75" x="63.476562"/>
      <use xlink:href="#DejaVuSans-61" x="126.855469"/>
      <use xlink:href="#DejaVuSans-64" x="188.134766"/>
      <use xlink:href="#DejaVuSans-20" x="251.611328"/>
      <use xlink:href="#DejaVuSans-6d" x="283.398438"/>
      <use xlink:href="#DejaVuSans-6f" x="380.810547"/>
      <use xlink:href="#DejaVuSans-64" x="441.992188"/>
      <use xlink:href="#DejaVuSans-65" x="505.46875"/>
      <use xlink:href="#DejaVuSans-6c" x="566.992188"/>
      <use xlink:href="#DejaVuSans-2c" x="594.775391"/>
      <use xlink:href="#DejaVuSans-20" x="626.5625"/>
      <use xlink:href="#DejaVuSans-72" x="658.349609"/>
      <use xlink:href="#DejaVuSans-61" x="699.462891"/>
      <use xlink:href="#DejaVuSans-6e" x="760.742188"/>
      <use xlink:href="#DejaVuSans-64" x="824.121094"/>
      <use xlink:href="#DejaVuSans-6f" x="887.597656"/>
      <use xlink:href="#DejaVuSans-6d" x="948.779297"/>
      <use xlink:href="#DejaVuSans-20" x="1046.191406"/>
      <use xlink:href="#DejaVuSans-64" x="1077.978516"/>
      <use xlink:href="#DejaVuSans-69" x="1141.455078"/>
      <use xlink:href="#DejaVuSans-72" x="1169.238281"/>
      <use xlink:href="#DejaVuSans-65" x="1208.101562"/>
      <use xlink:href="#DejaVuSans-63" x="1269.625"/>
      <use xlink:href="#DejaVuSans-74" x="1324.605469"/>
      <use xlink:href="#DejaVuSans-69" x="1363.814453"/>
      <use xlink:href="#DejaVuSans-6f" x="1391.597656"/>
      <use xlink:href="#DejaVuSans-6e" x="1452.779297"/>
     </g>
    </g>
    <g id="line2d_42">
     <path d="M 98.46 143.599463 
L 108.46 143.599463 
L 118.46 143.599463 
" style="fill: none; stroke-dasharray: 2,3.3; stroke-dashoffset: 0; stroke: #008000; stroke-width: 2"/>
    </g>
    <g id="text_24">
     <!-- net model, random direction -->
     <g transform="translate(126.46 147.099463)scale(0.1 -0.1)">
      <use xlink:href="#DejaVuSans-6e"/>
      <use xlink:href="#DejaVuSans-65" x="63.378906"/>
      <use xlink:href="#DejaVuSans-74" x="124.902344"/>
      <use xlink:href="#DejaVuSans-20" x="164.111328"/>
      <use xlink:href="#DejaVuSans-6d" x="195.898438"/>
      <use xlink:href="#DejaVuSans-6f" x="293.310547"/>
      <use xlink:href="#DejaVuSans-64" x="354.492188"/>
      <use xlink:href="#DejaVuSans-65" x="417.96875"/>
      <use xlink:href="#DejaVuSans-6c" x="479.492188"/>
      <use xlink:href="#DejaVuSans-2c" x="507.275391"/>
      <use xlink:href="#DejaVuSans-20" x="539.0625"/>
      <use xlink:href="#DejaVuSans-72" x="570.849609"/>
      <use xlink:href="#DejaVuSans-61" x="611.962891"/>
      <use xlink:href="#DejaVuSans-6e" x="673.242188"/>
      <use xlink:href="#DejaVuSans-64" x="736.621094"/>
      <use xlink:href="#DejaVuSans-6f" x="800.097656"/>
      <use xlink:href="#DejaVuSans-6d" x="861.279297"/>
      <use xlink:href="#DejaVuSans-20" x="958.691406"/>
      <use xlink:href="#DejaVuSans-64" x="990.478516"/>
      <use xlink:href="#DejaVuSans-69" x="1053.955078"/>
      <use xlink:href="#DejaVuSans-72" x="1081.738281"/>
      <use xlink:href="#DejaVuSans-65" x="1120.601562"/>
      <use xlink:href="#DejaVuSans-63" x="1182.125"/>
      <use xlink:href="#DejaVuSans-74" x="1237.105469"/>
      <use xlink:href="#DejaVuSans-69" x="1276.314453"/>
      <use xlink:href="#DejaVuSans-6f" x="1304.097656"/>
      <use xlink:href="#DejaVuSans-6e" x="1365.279297"/>
     </g>
    </g>
   </g>
  </g>
 </g>
 <defs>
  <clipPath id="p87e4eaa9a8">
   <rect x="89.46" y="57.1104" width="554.652" height="366.4584"/>
  </clipPath>
 </defs>
</svg>
