<svg xmlns="http://www.w3.org/2000/svg" xmlns:xlink="http://www.w3.org/1999/xlink" x="0" y="0" width="702" height="269.984375" style="
        width:702px;
        height:269.984375px;
        background: #FFF;
        fill: none;
">
        
        
        <svg xmlns="http://www.w3.org/2000/svg" class="role-diagram-draw-area" style="overflow: visible;"><g class="shapes-region" style="stroke: black; fill: none;"><g class="composite-shape"><path class="real" d=" M57.39,175.07 C68.37,161.53 60.39,142.62 70.62,129.41 C82.03,114.68 104,125.81 119,121.4 C137.39,115.99 135.77,113.66 151.26,99.37" style="stroke-width: 2; stroke: rgb(0, 0, 0); stroke-linejoin: round; stroke-linecap: round;"/></g><g class="composite-shape"><path class="real" d=" M150.43,100.17 C150.84,103.11 151.26,106.04 151.67,108.98" style="stroke-width: 2; stroke: rgb(0, 0, 0); stroke-linejoin: round; stroke-linecap: round;"/></g><g class="composite-shape"><path class="real" d=" M149.19,98.97 C145.33,99.99 141.2,99.99 137.2,99.77" style="stroke-width: 2; stroke: rgb(0, 0, 0); stroke-linejoin: round; stroke-linecap: round;"/></g><g class="composite-shape"><path class="real" d=" M59.46,175.07 C71.82,187.35 85.97,202.83 106.19,200.3 C134.88,196.7 167.62,173.25 195.92,190.69" style="stroke-width: 2; stroke: rgb(0, 0, 0); stroke-linejoin: round; stroke-linecap: round;"/></g><g class="composite-shape"><path class="real" d=" M195.5,190.29 C194.58,185.81 192.75,181.5 190.54,177.47" style="stroke-width: 2; stroke: rgb(0, 0, 0); stroke-linejoin: round; stroke-linecap: round;"/></g><g class="composite-shape"><path class="real" d=" M195.09,191.49 C190.12,191.89 186.42,193.49 181.44,193.49" style="stroke-width: 2; stroke: rgb(0, 0, 0); stroke-linejoin: round; stroke-linecap: round;"/></g><g class="composite-shape"><path class="real" d=" M60.7,174.27 C88.63,161.47 115.49,146.53 142.16,131.41" style="stroke-width: 2; stroke: rgb(0, 0, 0); stroke-linejoin: round; stroke-linecap: round;"/></g><g class="composite-shape"><path class="real" d=" M142.99,132.21 C142.64,135.8 141.81,139.61 142.99,143.03" style="stroke-width: 2; stroke: rgb(0, 0, 0); stroke-linejoin: round; stroke-linecap: round;"/></g><g class="composite-shape"><path class="real" d=" M140.92,130.21 C137.2,130.61 133.48,131.01 129.76,131.41" style="stroke-width: 2; stroke: rgb(0, 0, 0); stroke-linejoin: round; stroke-linecap: round;"/></g><g class="composite-shape"><path class="real" d=" M63.6,173.86 C92.94,178.88 131.21,177.97 158.7,164.65 C178,155.31 191.32,137.08 215.76,141.02" style="stroke-width: 2; stroke: rgb(0, 0, 0); stroke-linejoin: round; stroke-linecap: round;"/></g><g class="composite-shape"><path class="real" d=" M214.94,141.42 C213.01,139.55 211.08,137.69 209.15,135.82" style="stroke-width: 2; stroke: rgb(0, 0, 0); stroke-linejoin: round; stroke-linecap: round;"/></g><g class="composite-shape"><path class="real" d=" M215.35,141.42 C215.35,146.93 206.67,148.53 202.12,151.84" style="stroke-width: 2; stroke: rgb(0, 0, 0); stroke-linejoin: round; stroke-linecap: round;"/></g><g class="composite-shape"><path class="real" d=" M60.7,173.46 C68.97,169.02 82.23,153.97 88.82,153.44 C97.07,152.77 103.12,163.06 111.98,161.45 C122.02,159.62 113,140.2 122.73,139.02 C132.51,137.83 146.47,158.17 157.05,147.43 C166.78,137.56 154.8,117.59 169.45,113.39 C182.18,109.74 191.24,120.69 201.29,125 C213.38,130.18 226.58,116.43 234.79,110.18" style="stroke-width: 2; stroke: rgb(208, 2, 27); stroke-opacity: 1; stroke-linejoin: round; stroke-linecap: round;"/></g><g class="composite-shape"><path class="real" d=" M235.61,109.78 C235.75,112.32 235.89,114.86 236.03,117.39" style="stroke-width: 2; stroke: rgb(246, 5, 5); stroke-opacity: 1; stroke-linejoin: round; stroke-linecap: round;"/></g><g class="composite-shape"><path class="real" d=" M234.37,108.58 C230.79,108.75 227.16,109.15 223.62,108.58" style="stroke-width: 2; stroke: rgb(246, 5, 5); stroke-opacity: 1; stroke-linejoin: round; stroke-linecap: round;"/></g><g class="composite-shape"><path class="real" d=" M539.95,188.38 C533.58,179.74 524.47,174.83 516.38,168.56" style="stroke-width: 2; stroke: rgb(0, 0, 0); stroke-opacity: 1; stroke-linejoin: round; stroke-linecap: round;"/></g><g class="composite-shape"><path class="real" d=" M515.76,169.16 C519.48,168.76 523.21,168.36 526.93,167.96" style="stroke-width: 2; stroke: rgb(0, 0, 0); stroke-opacity: 1; stroke-linejoin: round; stroke-linecap: round;"/></g><g class="composite-shape"><path class="real" d=" M517,170.36 C518.24,172.56 519.48,174.77 520.72,176.97" style="stroke-width: 2; stroke: rgb(0, 0, 0); stroke-opacity: 1; stroke-linejoin: round; stroke-linecap: round;"/></g><g class="composite-shape"><path class="real" d=" M539.33,185.98 C539.33,179.48 534.54,143 537.47,137.32" style="stroke-width: 2; stroke: rgb(0, 0, 0); stroke-opacity: 1; stroke-linejoin: round; stroke-linecap: round;"/></g><g class="composite-shape"><path class="real" d=" M538.09,137.92 C540.03,140.43 541.5,143.33 542.43,146.33" style="stroke-width: 2; stroke: rgb(0, 0, 0); stroke-opacity: 1; stroke-linejoin: round; stroke-linecap: round;"/></g><g class="composite-shape"><path class="real" d=" M538.09,137.32 C536.57,139.04 533.13,139.86 533.13,142.12" style="stroke-width: 2; stroke: rgb(0, 0, 0); stroke-opacity: 1; stroke-linejoin: round; stroke-linecap: round;"/></g><g class="composite-shape"><path class="real" d=" M542.43,186.58 C559.8,186.58 577.17,186.58 594.54,186.58" style="stroke-width: 2; stroke: rgb(0, 0, 0); stroke-opacity: 1; stroke-linejoin: round; stroke-linecap: round;"/></g><g class="composite-shape"><path class="real" d=" M593.92,186.58 C593.92,184.3 590.29,183.64 588.33,182.38" style="stroke-width: 2; stroke: rgb(0, 0, 0); stroke-opacity: 1; stroke-linejoin: round; stroke-linecap: round;"/></g><g class="composite-shape"><path class="real" d=" M593.29,188.38 C591.61,188.38 588.07,191.91 587.09,192.59" style="stroke-width: 2; stroke: rgb(0, 0, 0); stroke-opacity: 1; stroke-linejoin: round; stroke-linecap: round;"/></g><g class="composite-shape"><path class="real" d=" M541.81,185.98 C543.14,179.11 544.49,172.19 546.78,165.55 C547.39,163.76 545.69,158.95 549.26,158.95" style="stroke-width: 2; stroke: rgb(0, 0, 0); stroke-opacity: 1; stroke-linejoin: round; stroke-linecap: round;"/></g><g class="composite-shape"><path class="real" d=" M548.02,159.55 C549.95,162.67 550.02,164.63 551.74,167.96" style="stroke-width: 2; stroke: rgb(0, 0, 0); stroke-opacity: 1; stroke-linejoin: round; stroke-linecap: round;"/></g><g class="composite-shape"><path class="real" d=" M546.78,159.55 C545.02,159.55 543.84,161.63 543.05,163.15" style="stroke-width: 2; stroke: rgb(0, 0, 0); stroke-opacity: 1; stroke-linejoin: round; stroke-linecap: round;"/></g><g class="composite-shape"><path class="real" d=" M541.81,184.78 C548.42,173.26 556.07,161.57 562.9,150.53 C570.48,138.31 574.39,123.47 580.89,110.88 C582.97,106.84 587.71,97.3 587.71,93.46" style="stroke-width: 2; stroke: rgb(74, 144, 226); stroke-opacity: 1; stroke-linejoin: round; stroke-linecap: round;"/></g><g class="composite-shape"><path class="real" d=" M588.33,94.06 C588.33,98.27 588.95,102.47 588.95,106.68" style="stroke-width: 2; stroke: rgb(74, 144, 226); stroke-opacity: 1; stroke-linejoin: round; stroke-linecap: round;"/></g><g class="composite-shape"><path class="real" d=" M585.85,94.66 C583.09,98.01 575.31,98.19 575.31,102.47" style="stroke-width: 2; stroke: rgb(74, 144, 226); stroke-opacity: 1; stroke-linejoin: round; stroke-linecap: round;"/></g><g class="composite-shape"><path class="real" d=" M311.08,109.08 C329.01,110.53 347.04,110.88 365.04,110.88" style="stroke-width: 2; stroke: rgb(19, 19, 20); stroke-opacity: 1; stroke-linejoin: round; stroke-linecap: round;"/></g><g class="composite-shape"><path class="real" d=" M316.04,136.72 C338.12,138.5 360.31,134.69 382.41,133.11" style="stroke-width: 2; stroke: rgb(19, 19, 20); stroke-opacity: 1; stroke-linejoin: round; stroke-linecap: round;"/></g><g class="composite-shape"><path class="real" d=" M366.28,103.07 C375.25,108.18 397.04,119.28 403.5,127.1 C403.9,127.6 403.36,128.49 402.88,128.91 C394.95,135.73 383.89,142.91 374.34,147.53" style="stroke-width: 2; stroke: rgb(19, 19, 20); stroke-opacity: 1; stroke-linejoin: round; stroke-linecap: round;"/></g><g class="composite-shape"><path class="real" d=" M27,67.03 C28.21,102.1 35.06,136.67 35.06,171.56 C35.06,196.19 27.19,225.97 31.96,249.06" style="stroke-width: 2; stroke: rgb(19, 19, 20); stroke-opacity: 1; stroke-linejoin: round; stroke-linecap: round;"/></g><g class="composite-shape"><path class="real" d=" M29.48,67.03 C59.3,67.03 89.93,71.59 120.04,71.83 C140.71,72 161.39,71.02 182.06,71.23 C195.86,71.37 233.39,75.35 254.63,71.23" style="stroke-width: 2; stroke: rgb(19, 19, 20); stroke-opacity: 1; stroke-linejoin: round; stroke-linecap: round;"/></g><g class="composite-shape"><path class="real" d=" M255.87,74.84 C251.8,114.3 256.88,154.16 258.36,193.79 C259.01,211.41 263.41,236.78 257.74,253.27" style="stroke-width: 2; stroke: rgb(19, 19, 20); stroke-opacity: 1; stroke-linejoin: round; stroke-linecap: round;"/></g><g class="composite-shape"><path class="real" d=" M30.72,253.87 C59.7,255.43 88.57,252.03 117.56,251.46 C163.25,250.58 207.84,252.81 253.39,250.86" style="stroke-width: 2; stroke: rgb(19, 19, 20); stroke-opacity: 1; stroke-linejoin: round; stroke-linecap: round;"/></g><g class="composite-shape"><path class="real" d=" M472.34,71.83 C472.34,118.57 477.55,164.76 481.03,211.21 C481.79,221.4 482.27,231.65 481.65,241.85 C481.24,248.52 471.65,261.68 478.55,261.68" style="stroke-width: 2; stroke: rgb(19, 19, 20); stroke-opacity: 1; stroke-linejoin: round; stroke-linecap: round;"/></g><g class="composite-shape"><path class="real" d=" M481.03,258.67 C525.87,255.89 570.73,253 615.62,252.06 C629.89,251.77 644.16,251.82 658.42,252.06 C667.74,252.22 686.33,244.84 686.33,253.87" style="stroke-width: 2; stroke: rgb(19, 19, 20); stroke-opacity: 1; stroke-linejoin: round; stroke-linecap: round;"/></g><g class="composite-shape"><path class="real" d=" M472.34,69.43 C541.48,71.59 611.62,69.43 680.13,69.43" style="stroke-width: 2; stroke: rgb(19, 19, 20); stroke-opacity: 1; stroke-linejoin: round; stroke-linecap: round;"/></g><g class="composite-shape"><path class="real" d=" M681.99,67.63 C684.18,116.36 675.78,164.72 677.65,213.62 C678.13,226.11 686.92,239.53 682.61,252.06" style="stroke-width: 2; stroke: rgb(19, 19, 20); stroke-opacity: 1; stroke-linejoin: round; stroke-linecap: round;"/></g><g class="composite-shape"><path class="real" d=" M541.81,186.58 C555.69,163.29 574.07,145.93 591.43,123.5 C595.21,118.63 601.98,112.92 601.98,106.68" style="stroke-width: 2; stroke: rgb(208, 2, 27); stroke-opacity: 1; stroke-linejoin: round; stroke-linecap: round;"/></g><g class="composite-shape"><path class="real" d=" M602.6,109.68 C602.6,115.7 603.84,117.51 604.46,123.5" style="stroke-width: 2; stroke: rgb(208, 2, 27); stroke-opacity: 1; stroke-linejoin: round; stroke-linecap: round;"/></g><g class="composite-shape"><path class="real" d=" M600.12,109.68 C597.68,114.4 589.73,115.09 586.47,115.09" style="stroke-width: 2; stroke: rgb(208, 2, 27); stroke-opacity: 1; stroke-linejoin: round; stroke-linecap: round;"/></g><g class="composite-shape"><path class="real" d=" M559.18,112.09 C521.64,81.78 472.21,86.92 425.21,86.25 C374.03,85.53 327.51,88.46 275.72,91.66 C265.11,92.31 208.78,97.9 200.67,109.68" style="stroke-width: 1; stroke: rgb(0, 0, 0); stroke-opacity: 1; stroke-linejoin: round; stroke-linecap: round;"/></g><g class="composite-shape"><path class="real" d=" M203.15,110.28 C204.79,109.65 206.35,108.48 208.12,108.48" style="stroke-width: 1; stroke: rgb(0, 0, 0); stroke-opacity: 1; stroke-linejoin: round; stroke-linecap: round;"/></g><g class="composite-shape"><path class="real" d=" M201.91,109.68 C201.71,107.88 201.5,106.08 201.29,104.28" style="stroke-width: 1; stroke: rgb(0, 0, 0); stroke-opacity: 1; stroke-linejoin: round; stroke-linecap: round;"/></g><g/></g><g/><g/><g/></svg>
        <svg xmlns="http://www.w3.org/2000/svg" xmlns:xlink="http://www.w3.org/1999/xlink" width="700" height="267.984375" style="width:700px;height:267.984375px;font-family:Asana-Math, Asana;background:#FFF;"><g><g><g><text x="61" y="39.96875" style="white-space:pre;stroke:none;fill:rgb(0,0,0);fill-opacity:1;font-size:15px;font-family:Arial, Helvetica, sans-serif;font-weight:400;font-style:normal;dominant-baseline:text-before-edge;text-decoration:none solid rgb(0, 0, 0);">State Space Trajectories</text></g></g></g><g><g><g><text x="495.953125" y="40.09375" style="white-space:pre;stroke:none;fill:rgb(0,0,0);fill-opacity:1;font-size:15px;font-family:Arial, Helvetica, sans-serif;font-weight:400;font-style:normal;dominant-baseline:text-before-edge;text-decoration:none solid rgb(0, 0, 0);">Parameter Space Gradients</text></g></g></g><g><g><g><text x="316.28125" y="161.65625" style="white-space:pre;stroke:none;fill:rgb(0,0,0);fill-opacity:1;font-size:10.5px;font-family:Arial, Helvetica, sans-serif;font-weight:400;font-style:normal;dominant-baseline:text-before-edge;text-decoration:none solid rgb(0, 0, 0);">Compute gradient</text></g></g><g><g><text x="316" y="176.65625" style="white-space:pre;stroke:none;fill:rgb(0,0,0);fill-opacity:1;font-size:10.5px;font-family:Arial, Helvetica, sans-serif;font-weight:400;font-style:normal;dominant-baseline:text-before-edge;text-decoration:none solid rgb(0, 0, 0);">for each trajectory</text></g></g></g><g><g><g><g transform="matrix(1,0,0,1,294.03125,230.053125)"><path transform="matrix(0.0136,0,0,-0.0136,0,0)" d="M434 653C511 653 565 639 621 603L621 519L648 519C653 576 661 619 675 665C592 695 535 706 466 706C374 706 301 683 229 632C112 548 50 424 50 274C50 87 159 -18 355 -18C412 -21 559 6 608 37C628 193 632 216 633 219C635 228 647 238 660 240L692 246L694 274C655 270 620 269 569 269C518 269 482 270 440 274L435 246L469 244C544 240 553 236 553 212C553 197 533 84 528 60C483 36 444 27 390 27C224 27 138 120 138 297C138 443 197 653 434 653Z" stroke="rgb(0,0,0)" stroke-opacity="1" stroke-width="8" fill="rgb(0,0,0)" fill-opacity="1"></path></g></g><g><g><g><g><g transform="matrix(1,0,0,1,304.25,233.4575)"><path transform="matrix(0.009519999999999999,0,0,-0.009519999999999999,0,0)" d="M34 388L41 368L73 389C110 412 113 414 120 414C130 414 138 404 138 391C138 384 134 361 130 347L64 107C56 76 51 49 51 30C51 6 62 -9 81 -9C107 -9 143 12 241 85L231 103L205 86C176 67 153 56 144 56C137 56 131 66 131 76C131 86 133 95 138 116L215 420C219 437 221 448 221 456C221 473 212 482 196 482C174 482 137 461 62 408ZM228 712C199 712 170 679 170 645C170 620 185 604 209 604C240 604 264 633 264 671C264 695 249 712 228 712Z" stroke="rgb(0,0,0)" stroke-opacity="1" stroke-width="8" fill="rgb(0,0,0)" fill-opacity="1"></path></g></g></g></g></g><g><g transform="matrix(1,0,0,1,307.703125,230.053125)"><path transform="matrix(0.0136,0,0,-0.0136,0,0)" d="M662 687L655 697C549 693 443 693 336 693C235 693 134 694 33 697L27 687C88 577 136 455 186 339C235 227 288 113 327 -4L352 -4C395 103 597 565 662 687ZM584 656C518 478 447 304 371 129L364 129C289 302 217 478 152 656Z" stroke="rgb(0,0,0)" stroke-opacity="1" stroke-width="8" fill="rgb(0,0,0)" fill-opacity="1"></path></g></g><g><g><g><g><g transform="matrix(1,0,0,1,317.46875,232.4575)"><path transform="matrix(0.009519999999999999,0,0,-0.009519999999999999,0,0)" d="M237 -16C473 -16 572 316 576 504C578 618 546 702 419 702C159 702 72 412 69 199C67 80 101 -16 237 -16ZM401 676C536 676 506 491 485 381L169 381C194 485 272 676 401 676ZM253 13C102 13 147 261 163 349L479 349C454 237 396 13 253 13Z" stroke="rgb(0,0,0)" stroke-opacity="1" stroke-width="8" fill="rgb(0,0,0)" fill-opacity="1"></path></g></g></g></g></g><g><g><g></g></g><g><g><g><g transform="matrix(1,0,0,1,331.203125,242.48875)"><path transform="matrix(0.009519999999999999,0,0,-0.009519999999999999,0,0)" d="M125 390L69 107C68 99 56 61 56 31C56 6 67 -9 86 -9C121 -9 156 11 234 74L265 99L255 117L210 86C181 66 161 56 150 56C141 56 136 64 136 76C136 102 150 183 179 328L192 390L299 390L310 440C272 436 238 434 200 434C216 528 227 577 245 631L234 646C214 634 187 622 156 610L131 440C87 419 61 408 43 403L41 390Z" stroke="rgb(0,0,0)" stroke-opacity="1" stroke-width="8" fill="rgb(0,0,0)" fill-opacity="1"></path></g></g></g></g><g><g transform="matrix(1,0,0,1,324.125,228.821875)"><path transform="matrix(0.020399999999999998,0,0,-0.020399999999999998,0,0)" d="M788 13L772 -310L62 -310L420 133L66 620L754 620L768 346L732 346C718 428 694 486 662 522C626 559 572 578 498 578L246 578L524 194L214 -205L512 -205C592 -205 648 -190 680 -162C714 -132 734 -74 746 13Z" stroke="rgb(0,0,0)" stroke-opacity="1" stroke-width="8" fill="rgb(0,0,0)" fill-opacity="1"></path></g></g></g><g><g><g transform="matrix(1,0,0,1,343.5,230.053125)"><path transform="matrix(0.0136,0,0,-0.0136,0,0)" d="M23 661L79 661C97 661 104 650 104 620L104 102C104 39 101 32 67 30L21 27L21 -3C121 0 121 0 146 0C171 0 171 0 271 -3L271 27L225 30C191 32 188 39 188 102L188 718L179 726C135 709 102 701 23 689ZM569 469C423 469 322 366 322 217C322 76 411 -20 540 -20C694 -20 804 87 804 237C804 372 706 469 569 469ZM551 436C643 436 711 336 711 200C711 85 660 13 579 13C481 13 415 109 415 251C415 371 463 436 551 436ZM890 289C890 215 936 164 1010 156L931 95C921 80 916 67 916 52C916 24 934 8 982 -6L895 -53C881 -61 867 -98 867 -129C867 -220 956 -283 1083 -283C1234 -283 1353 -188 1353 -66C1353 6 1305 56 1235 56L1075 56C1023 56 999 68 999 95C999 118 1028 135 1045 152C1055 151 1061 150 1069 150C1130 150 1273 197 1273 324C1273 344 1270 357 1262 378L1354 378L1379 419L1375 431L1233 427C1196 457 1160 469 1111 469C1036 469 890 424 890 289ZM1075 435C1143 435 1189 379 1189 294C1189 229 1147 184 1086 184C1019 184 974 236 974 313C974 390 1011 435 1075 435ZM1122 -14C1235 -14 1274 -37 1274 -102C1274 -188 1195 -252 1090 -252C1003 -252 943 -201 943 -127C943 -82 969 -41 1009 -24C1025 -16 1053 -14 1122 -14Z" stroke="rgb(0,0,0)" stroke-opacity="1" stroke-width="8" fill="rgb(0,0,0)" fill-opacity="1"></path></g></g></g><g><g transform="matrix(1,0,0,1,365.125,230.053125)"><path transform="matrix(0.0136,0,0,-0.0136,0,0)" d="M525 42C469 42 464 125 465 166C466 251 494 333 537 405L599 418C602 435 608 452 613 467C459 461 300 463 145 466C80 467 66 389 47 340C46 332 59 331 63 328L63 332C106 395 130 405 205 405L228 405C188 266 161 129 98 -2L98 -12C118 -6 153 1 170 13C211 141 240 274 268 405L495 405C438 318 397 213 395 108C395 59 410 -15 471 -15C512 -15 568 25 598 51L598 66L586 66L586 67C568 56 548 42 525 42Z" stroke="rgb(0,0,0)" stroke-opacity="1" stroke-width="8" fill="rgb(0,0,0)" fill-opacity="1"></path></g></g><g><g><g><g><g transform="matrix(1,0,0,1,374.421875,232.4575)"><path transform="matrix(0.009519999999999999,0,0,-0.009519999999999999,0,0)" d="M237 -16C473 -16 572 316 576 504C578 618 546 702 419 702C159 702 72 412 69 199C67 80 101 -16 237 -16ZM401 676C536 676 506 491 485 381L169 381C194 485 272 676 401 676ZM253 13C102 13 147 261 163 349L479 349C454 237 396 13 253 13Z" stroke="rgb(0,0,0)" stroke-opacity="1" stroke-width="8" fill="rgb(0,0,0)" fill-opacity="1"></path></g></g></g></g></g><g><g transform="matrix(1,0,0,1,381.078125,231.053125)"><path transform="matrix(0.0136,0,0,-0.0136,0,0)" d="M146 266C146 526 243 632 301 700L282 726C225 675 60 542 60 266C60 159 85 58 133 -32C168 -99 200 -138 282 -215L301 -194C255 -137 146 -15 146 266Z" stroke="rgb(0,0,0)" stroke-opacity="1" stroke-width="8" fill="rgb(0,0,0)" fill-opacity="1"></path></g></g><g><g transform="matrix(1,0,0,1,385.59375,230.053125)"><path transform="matrix(0.0136,0,0,-0.0136,0,0)" d="M271 204L242 77C238 60 236 42 236 26C236 4 245 -9 260 -9C283 -9 324 17 406 85L399 106C375 86 346 59 324 59C315 59 309 68 309 82C309 87 309 90 310 93L402 472L392 481L359 463C318 478 301 482 274 482C246 482 226 477 199 464C137 433 104 403 79 354C35 265 4 145 4 67C4 23 19 -11 38 -11C75 -11 155 41 271 204ZM319 414C297 305 278 253 244 201C187 117 126 59 94 59C82 59 76 72 76 99C76 163 104 280 139 360C163 415 186 433 234 433C257 433 275 429 319 414Z" stroke="rgb(0,0,0)" stroke-opacity="1" stroke-width="8" fill="rgb(0,0,0)" fill-opacity="1"></path></g></g><g><g><g><g><g transform="matrix(1,0,0,1,392.03125,232.4575)"><path transform="matrix(0.009519999999999999,0,0,-0.009519999999999999,0,0)" d="M125 390L69 107C68 99 56 61 56 31C56 6 67 -9 86 -9C121 -9 156 11 234 74L265 99L255 117L210 86C181 66 161 56 150 56C141 56 136 64 136 76C136 102 150 183 179 328L192 390L299 390L310 440C272 436 238 434 200 434C216 528 227 577 245 631L234 646C214 634 187 622 156 610L131 440C87 419 61 408 43 403L41 390ZM536 123C509 114 491 108 438 93C431 17 406 -48 348 -144L362 -155L403 -136C484 -31 522 32 550 109ZM615 388L622 368L654 389C691 412 694 414 701 414C711 414 719 404 719 391C719 384 715 361 711 347L645 107C637 76 632 49 632 30C632 6 643 -9 662 -9C688 -9 724 12 822 85L812 103L786 86C757 67 734 56 725 56C718 56 712 66 712 76C712 86 714 95 719 116L796 420C800 437 802 448 802 456C802 473 793 482 777 482C755 482 718 461 643 408ZM809 712C780 712 751 679 751 645C751 620 766 604 790 604C821 604 845 633 845 671C845 695 830 712 809 712Z" stroke="rgb(0,0,0)" stroke-opacity="1" stroke-width="8" fill="rgb(0,0,0)" fill-opacity="1"></path></g></g></g></g></g><g><g transform="matrix(1,0,0,1,401.015625,230.053125)"><path transform="matrix(0.0136,0,0,-0.0136,0,0)" d="M179.50274 -172L179.50274 713L120.50274 713L120.50274 -172Z" stroke="rgb(0,0,0)" stroke-opacity="1" stroke-width="8" fill="rgb(0,0,0)" fill-opacity="1"></path></g></g><g><g transform="matrix(1,0,0,1,405.09375,230.053125)"><path transform="matrix(0.0136,0,0,-0.0136,0,0)" d="M31 148C26 97 20 62 9 16C47 -2 81 -11 116 -11C165 -11 211 7 262 47C313 87 334 124 334 174C334 228 302 257 228 271L185 279C125 290 106 307 106 348C106 401 151 442 208 442C249 442 287 424 303 397L303 342L326 342C330 377 334 404 345 455C306 474 278 482 245 482C193 482 132 452 84 404C58 377 47 352 47 316C47 260 78 228 144 215L207 203C251 195 267 177 267 138C267 73 221 29 150 29C115 29 84 40 56 64L56 148Z" stroke="rgb(0,0,0)" stroke-opacity="1" stroke-width="8" fill="rgb(0,0,0)" fill-opacity="1"></path></g></g><g><g><g><g><g transform="matrix(1,0,0,1,410.78125,232.4575)"><path transform="matrix(0.009519999999999999,0,0,-0.009519999999999999,0,0)" d="M125 390L69 107C68 99 56 61 56 31C56 6 67 -9 86 -9C121 -9 156 11 234 74L265 99L255 117L210 86C181 66 161 56 150 56C141 56 136 64 136 76C136 102 150 183 179 328L192 390L299 390L310 440C272 436 238 434 200 434C216 528 227 577 245 631L234 646C214 634 187 622 156 610L131 440C87 419 61 408 43 403L41 390ZM536 123C509 114 491 108 438 93C431 17 406 -48 348 -144L362 -155L403 -136C484 -31 522 32 550 109ZM615 388L622 368L654 389C691 412 694 414 701 414C711 414 719 404 719 391C719 384 715 361 711 347L645 107C637 76 632 49 632 30C632 6 643 -9 662 -9C688 -9 724 12 822 85L812 103L786 86C757 67 734 56 725 56C718 56 712 66 712 76C712 86 714 95 719 116L796 420C800 437 802 448 802 456C802 473 793 482 777 482C755 482 718 461 643 408ZM809 712C780 712 751 679 751 645C751 620 766 604 790 604C821 604 845 633 845 671C845 695 830 712 809 712Z" stroke="rgb(0,0,0)" stroke-opacity="1" stroke-width="8" fill="rgb(0,0,0)" fill-opacity="1"></path></g></g></g></g></g><g><g transform="matrix(1,0,0,1,419.765625,231.053125)"><path transform="matrix(0.0136,0,0,-0.0136,0,0)" d="M51 726L32 700C87 636 187 526 187 266C187 -10 83 -131 32 -194L51 -215C104 -165 273 -23 273 265C273 542 108 675 51 726Z" stroke="rgb(0,0,0)" stroke-opacity="1" stroke-width="8" fill="rgb(0,0,0)" fill-opacity="1"></path></g></g></g></g><g><g><g><text x="557.828125" y="75.7265625" style="white-space:pre;stroke:none;fill:rgb(0,0,0);fill-opacity:1;font-size:10.5px;font-family:Arial, Helvetica, sans-serif;font-weight:400;font-style:normal;dominant-baseline:text-before-edge;text-decoration:none solid rgb(0, 0, 0);">full gradient</text></g></g></g><g><g><g><text x="286.8046875" y="39.4765625" style="white-space:pre;stroke:none;fill:rgb(0,0,0);fill-opacity:1;font-size:10.5px;font-family:Arial, Helvetica, sans-serif;font-weight:400;font-style:normal;dominant-baseline:text-before-edge;text-decoration:none solid rgb(0, 0, 0);">Use CEM to find single trajectory </text><text x="290.8828125" y="51.4765625" style="white-space:pre;stroke:none;fill:rgb(0,0,0);fill-opacity:1;font-size:10.5px;font-family:Arial, Helvetica, sans-serif;font-weight:400;font-style:normal;dominant-baseline:text-before-edge;text-decoration:none solid rgb(0, 0, 0);">which gets us closest to the full </text><text x="345.7421875" y="63.4765625" style="white-space:pre;stroke:none;fill:rgb(0,0,0);fill-opacity:1;font-size:10.5px;font-family:Arial, Helvetica, sans-serif;font-weight:400;font-style:normal;dominant-baseline:text-before-edge;text-decoration:none solid rgb(0, 0, 0);">gradient</text></g></g></g></svg>
</svg>
